{"glyphs":{"0":{"ha":833,"x_min":0,"x_max":0,"o":"m 417 -22 b 769 492 633 -22 769 178 b 417 1008 769 808 633 1008 b 64 492 200 1008 64 808 b 417 -22 64 178 200 -22 z m 207 492 b 417 878 207 732 288 878 b 626 492 546 878 626 732 b 417 108 626 254 546 108 b 207 492 288 108 207 254 z "},"1":{"ha":833,"x_min":0,"x_max":0,"o":"m 81 131 l 81 0 l 778 0 l 778 131 l 511 131 l 511 986 l 401 986 b 242 826 401 875 353 826 l 128 826 l 128 713 l 375 713 l 375 131 z "},"2":{"ha":833,"x_min":0,"x_max":0,"o":"m 86 688 l 228 678 b 442 878 251 806 328 878 b 619 724 546 878 619 814 b 443 515 619 649 542 578 b 68 0 265 403 68 297 l 768 0 l 768 131 l 238 131 b 506 394 244 226 433 353 b 761 724 650 482 761 581 b 442 1008 761 888 626 1008 b 86 688 240 1008 110 872 z "},"3":{"ha":833,"x_min":0,"x_max":0,"o":"m 407 588 l 335 589 l 335 460 l 407 461 b 626 282 542 464 626 394 b 410 108 626 175 543 108 b 200 268 318 108 210 154 l 58 260 b 410 -22 67 90 214 -22 b 768 272 624 -22 768 99 b 558 533 768 397 696 494 b 735 750 674 567 735 639 b 410 1008 735 903 601 1008 b 92 765 240 1008 110 908 l 233 757 b 410 878 246 832 314 878 b 592 747 526 878 592 828 b 407 588 592 628 496 586 z "},"4":{"ha":833,"x_min":0,"x_max":0,"o":"m 681 986 l 531 986 l 40 328 l 40 194 l 544 194 l 544 0 l 681 0 l 681 194 l 790 194 l 790 325 l 681 325 z m 204 325 l 544 781 l 544 325 z "},"5":{"ha":833,"x_min":0,"x_max":0,"o":"m 711 986 l 171 986 l 94 425 l 239 425 b 415 528 264 486 340 528 b 621 318 535 528 621 444 b 432 108 621 194 542 108 b 221 265 317 108 235 168 l 78 257 b 419 -22 93 100 240 -22 b 764 318 621 -22 764 118 b 449 657 764 515 628 657 b 250 576 376 657 294 629 l 288 856 l 711 856 z "},"6":{"ha":833,"x_min":0,"x_max":0,"o":"m 631 760 l 771 769 b 451 1008 728 922 603 1008 b 69 435 164 1008 69 733 b 171 89 69 285 103 163 b 424 -22 242 11 332 -22 b 775 328 629 -22 775 114 b 446 672 775 531 642 672 b 210 550 347 672 264 629 b 451 878 229 763 314 878 b 631 760 539 878 604 835 z m 217 328 b 436 542 218 454 310 542 b 633 328 551 542 633 454 b 426 108 633 199 547 108 b 217 328 301 108 214 199 z "},"7":{"ha":833,"x_min":0,"x_max":0,"o":"m 82 986 l 82 856 l 638 856 b 314 0 444 611 314 319 l 456 0 b 786 861 456 326 592 619 l 786 986 z "},"8":{"ha":833,"x_min":0,"x_max":0,"o":"m 417 -22 b 772 271 621 -22 772 90 b 581 535 772 393 700 489 b 725 738 671 572 725 638 b 417 1008 725 894 593 1008 b 108 738 242 1008 108 894 b 253 535 108 638 161 572 b 61 271 133 490 61 394 b 417 -22 61 90 213 -22 z m 204 283 b 417 460 204 388 292 460 b 629 283 542 460 629 388 b 417 108 629 179 542 108 b 204 283 292 108 204 179 z m 250 735 b 417 878 250 819 318 878 b 583 735 515 878 583 819 b 417 590 583 650 515 590 b 250 735 318 590 250 650 z "},"9":{"ha":833,"x_min":0,"x_max":0,"o":"m 203 226 l 63 217 b 382 -22 106 64 231 -22 b 764 551 669 -22 764 253 b 663 897 764 701 731 824 b 410 1008 592 975 501 1008 b 58 658 204 1008 58 872 b 388 314 58 456 192 314 b 624 436 486 314 569 357 b 382 108 604 224 519 108 b 203 226 294 108 229 151 z m 200 658 b 407 878 200 788 286 878 b 617 658 532 878 619 788 b 397 444 615 532 524 444 b 200 658 282 444 200 532 z "}," ":{"ha":833,"x_min":0,"x_max":0,"o":""},"A":{"ha":833,"x_min":0,"x_max":0,"o":"m 32 0 l 172 0 l 249 263 l 585 263 l 661 0 l 801 0 l 501 986 l 332 986 z m 283 382 l 417 842 l 550 382 z "},"Á":{"ha":833,"x_min":0,"x_max":0,"o":"m 32 0 l 172 0 l 249 263 l 585 263 l 661 0 l 801 0 l 501 986 l 332 986 z m 283 382 l 417 842 l 550 382 z m 365 1096 l 467 1096 l 593 1276 l 453 1276 z "},"Ă":{"ha":833,"x_min":0,"x_max":0,"o":"m 32 0 l 172 0 l 249 263 l 585 263 l 661 0 l 801 0 l 501 986 l 332 986 z m 215 1276 b 417 1096 217 1175 304 1096 b 618 1276 531 1096 618 1175 l 519 1276 b 417 1186 519 1226 475 1186 b 314 1276 360 1186 315 1226 z m 283 382 l 417 842 l 550 382 z "},"Ǎ":{"ha":833,"x_min":0,"x_max":0,"o":"m 32 0 l 172 0 l 249 263 l 585 263 l 661 0 l 801 0 l 501 986 l 332 986 z m 217 1263 l 336 1096 l 499 1096 l 619 1263 l 492 1263 l 418 1158 l 343 1263 z m 283 382 l 417 842 l 550 382 z "},"Â":{"ha":833,"x_min":0,"x_max":0,"o":"m 32 0 l 172 0 l 249 263 l 585 263 l 661 0 l 801 0 l 501 986 l 332 986 z m 215 1096 l 342 1096 l 417 1200 l 490 1096 l 618 1096 l 497 1263 l 335 1263 z m 283 382 l 417 842 l 550 382 z "},"Ä":{"ha":833,"x_min":0,"x_max":0,"o":"m 32 0 l 172 0 l 249 263 l 585 263 l 661 0 l 801 0 l 501 986 l 332 986 z m 238 1090 l 383 1090 l 383 1236 l 238 1236 z m 283 382 l 417 842 l 550 382 z m 449 1090 l 594 1090 l 594 1236 l 449 1236 z "},"À":{"ha":833,"x_min":0,"x_max":0,"o":"m 32 0 l 172 0 l 249 263 l 585 263 l 661 0 l 801 0 l 501 986 l 332 986 z m 215 1276 l 361 1082 l 471 1082 l 364 1276 z m 283 382 l 417 842 l 550 382 z "},"Ā":{"ha":833,"x_min":0,"x_max":0,"o":"m 32 0 l 172 0 l 249 263 l 585 263 l 661 0 l 801 0 l 501 986 l 332 986 z m 235 1115 l 597 1115 l 597 1214 l 235 1214 z m 283 382 l 417 842 l 550 382 z "},"Ą":{"ha":833,"x_min":0,"x_max":0,"o":"m 32 0 l 172 0 l 249 263 l 585 263 l 661 0 l 701 0 l 651 -54 b 599 -181 614 -93 599 -136 b 725 -300 599 -249 656 -299 b 836 -261 763 -301 801 -290 l 836 -164 b 749 -194 806 -178 774 -194 b 703 -147 722 -194 703 -174 b 746 -58 703 -119 726 -86 l 788 0 l 801 0 l 501 986 l 332 986 z m 283 382 l 417 842 l 550 382 z "},"Å":{"ha":833,"x_min":0,"x_max":0,"o":"m 32 0 l 172 0 l 249 263 l 585 263 l 661 0 l 801 0 l 501 986 l 332 986 z m 272 1204 b 417 1061 272 1125 336 1061 b 561 1204 497 1061 561 1125 b 417 1351 561 1286 497 1351 b 272 1204 336 1351 272 1286 z m 283 382 l 417 842 l 550 382 z m 360 1206 b 417 1263 360 1238 385 1263 b 474 1206 449 1263 474 1238 b 417 1150 474 1175 449 1150 b 360 1206 385 1150 360 1175 z "},"Ã":{"ha":833,"x_min":0,"x_max":0,"o":"m 32 0 l 172 0 l 249 263 l 585 263 l 661 0 l 801 0 l 501 986 l 332 986 z m 182 1094 l 276 1094 b 331 1185 276 1158 294 1185 b 401 1140 363 1185 378 1164 b 511 1093 425 1115 454 1093 b 651 1279 596 1093 651 1167 l 557 1279 b 504 1188 557 1217 540 1188 b 424 1242 468 1188 451 1215 b 322 1281 400 1264 372 1281 b 182 1094 238 1281 183 1208 z m 283 382 l 417 842 l 550 382 z "},"Æ":{"ha":833,"x_min":0,"x_max":0,"o":"m 336 986 l 13 0 l 150 0 l 236 274 l 446 274 l 446 0 l 810 0 l 810 129 l 581 129 l 581 431 l 793 431 l 793 558 l 581 558 l 581 857 l 803 857 l 803 986 z m 275 404 l 419 861 l 446 861 l 446 404 z "},"B":{"ha":833,"x_min":0,"x_max":0,"o":"m 104 0 l 435 0 b 776 279 647 0 776 107 b 551 510 776 408 690 494 b 735 713 661 526 735 606 b 379 986 735 889 608 986 l 104 986 z m 240 131 l 240 436 l 433 436 b 633 282 563 436 633 382 b 433 131 633 188 557 131 z m 240 567 l 240 856 l 381 856 b 592 710 518 856 592 804 b 381 567 592 617 518 567 z "},"C":{"ha":833,"x_min":0,"x_max":0,"o":"m 790 318 l 647 326 b 435 108 618 185 543 108 b 192 492 279 108 192 244 b 435 878 192 740 279 878 b 639 679 533 878 606 808 l 783 689 b 436 1008 738 886 613 1008 b 50 492 190 1008 50 810 b 436 -22 50 176 190 -22 b 790 318 624 -22 751 108 z "},"Ć":{"ha":833,"x_min":0,"x_max":0,"o":"m 790 318 l 647 326 b 435 108 618 185 543 108 b 192 492 279 108 192 244 b 435 878 192 740 279 878 b 639 679 533 878 606 808 l 783 689 b 436 1008 738 886 613 1008 b 50 492 190 1008 50 810 b 436 -22 50 176 190 -22 b 790 318 624 -22 751 108 z m 386 1096 l 488 1096 l 614 1276 l 474 1276 z "},"Č":{"ha":833,"x_min":0,"x_max":0,"o":"m 790 318 l 647 326 b 435 108 618 185 543 108 b 192 492 279 108 192 244 b 435 878 192 740 279 878 b 639 679 533 878 606 808 l 783 689 b 436 1008 738 886 613 1008 b 50 492 190 1008 50 810 b 436 -22 50 176 190 -22 b 790 318 624 -22 751 108 z m 236 1263 l 356 1096 l 518 1096 l 639 1263 l 511 1263 l 438 1158 l 363 1263 z "},"Ç":{"ha":833,"x_min":0,"x_max":0,"o":"m 790 318 l 647 326 b 435 108 618 185 543 108 b 192 492 279 108 192 244 b 435 878 192 740 279 878 b 639 679 533 878 606 808 l 783 689 b 436 1008 738 886 613 1008 b 50 492 190 1008 50 810 b 382 -19 50 200 169 8 l 340 -65 l 382 -119 b 483 -169 438 -106 483 -125 b 422 -226 483 -203 460 -226 b 324 -154 375 -226 343 -179 l 258 -215 b 429 -311 314 -279 361 -311 b 569 -178 507 -311 569 -253 b 435 -50 569 -103 513 -50 l 461 -21 b 790 318 635 -11 753 118 z "},"Ĉ":{"ha":833,"x_min":0,"x_max":0,"o":"m 790 318 l 647 326 b 435 108 618 185 543 108 b 192 492 279 108 192 244 b 435 878 192 740 279 878 b 639 679 533 878 606 808 l 783 689 b 436 1008 738 886 613 1008 b 50 492 190 1008 50 810 b 436 -22 50 176 190 -22 b 790 318 624 -22 751 108 z m 235 1096 l 361 1096 l 436 1200 l 510 1096 l 638 1096 l 517 1263 l 354 1263 z "},"Ċ":{"ha":833,"x_min":0,"x_max":0,"o":"m 790 318 l 647 326 b 435 108 618 185 543 108 b 192 492 279 108 192 244 b 435 878 192 740 279 878 b 639 679 533 878 606 808 l 783 689 b 436 1008 738 886 613 1008 b 50 492 190 1008 50 810 b 436 -22 50 176 190 -22 b 790 318 624 -22 751 108 z m 363 1090 l 508 1090 l 508 1236 l 363 1236 z "},"D":{"ha":833,"x_min":0,"x_max":0,"o":"m 349 986 l 99 986 l 99 0 l 357 0 b 796 492 628 0 796 178 b 349 986 796 807 625 986 z m 235 131 l 235 856 l 349 856 b 653 492 543 856 653 736 b 349 131 653 250 543 131 z "},"Ð":{"ha":833,"x_min":0,"x_max":0,"o":"m -12 550 l -12 436 l 153 436 l 153 0 l 411 0 b 850 492 682 0 850 178 b 403 986 850 807 679 986 l 153 986 l 153 550 z m 289 131 l 289 436 l 419 436 l 419 550 l 289 550 l 289 856 l 403 856 b 707 492 597 856 707 736 b 403 131 707 250 597 131 z "},"Ď":{"ha":833,"x_min":0,"x_max":0,"o":"m 349 986 l 99 986 l 99 0 l 357 0 b 796 492 628 0 796 178 b 349 986 796 807 625 986 z m 219 1263 l 339 1096 l 501 1096 l 622 1263 l 494 1263 l 421 1158 l 346 1263 z m 235 131 l 235 856 l 349 856 b 653 492 543 856 653 736 b 349 131 653 250 543 131 z "},"Đ":{"ha":833,"x_min":0,"x_max":0,"o":"m -12 550 l -12 436 l 153 436 l 153 0 l 411 0 b 850 492 682 0 850 178 b 403 986 850 807 679 986 l 153 986 l 153 550 z m 289 131 l 289 436 l 419 436 l 419 550 l 289 550 l 289 856 l 403 856 b 707 492 597 856 707 736 b 403 131 707 250 597 131 z "},"E":{"ha":833,"x_min":0,"x_max":0,"o":"m 119 986 l 119 0 l 758 0 l 758 131 l 256 131 l 256 431 l 731 431 l 731 558 l 256 558 l 256 856 l 747 856 l 747 986 z "},"É":{"ha":833,"x_min":0,"x_max":0,"o":"m 119 986 l 119 0 l 758 0 l 758 131 l 256 131 l 256 431 l 731 431 l 731 558 l 256 558 l 256 856 l 747 856 l 747 986 z m 389 1097 l 490 1097 l 617 1278 l 476 1278 z "},"Ě":{"ha":833,"x_min":0,"x_max":0,"o":"m 119 986 l 119 0 l 758 0 l 758 131 l 256 131 l 256 431 l 731 431 l 731 558 l 256 558 l 256 856 l 747 856 l 747 986 z m 239 1264 l 358 1097 l 521 1097 l 642 1264 l 514 1264 l 440 1160 l 365 1264 z "},"Ê":{"ha":833,"x_min":0,"x_max":0,"o":"m 119 986 l 119 0 l 758 0 l 758 131 l 256 131 l 256 431 l 731 431 l 731 558 l 256 558 l 256 856 l 747 856 l 747 986 z m 238 1097 l 364 1097 l 439 1201 l 513 1097 l 640 1097 l 519 1264 l 357 1264 z "},"Ë":{"ha":833,"x_min":0,"x_max":0,"o":"m 119 986 l 119 0 l 758 0 l 758 131 l 256 131 l 256 431 l 731 431 l 731 558 l 256 558 l 256 856 l 747 856 l 747 986 z m 260 1092 l 406 1092 l 406 1238 l 260 1238 z m 472 1092 l 618 1092 l 618 1238 l 472 1238 z "},"Ė":{"ha":833,"x_min":0,"x_max":0,"o":"m 119 986 l 119 0 l 758 0 l 758 131 l 256 131 l 256 431 l 731 431 l 731 558 l 256 558 l 256 856 l 747 856 l 747 986 z m 365 1092 l 511 1092 l 511 1238 l 365 1238 z "},"È":{"ha":833,"x_min":0,"x_max":0,"o":"m 119 986 l 119 0 l 758 0 l 758 131 l 256 131 l 256 431 l 731 431 l 731 558 l 256 558 l 256 856 l 747 856 l 747 986 z m 239 1278 l 385 1083 l 494 1083 l 388 1278 z "},"Ē":{"ha":833,"x_min":0,"x_max":0,"o":"m 119 986 l 119 0 l 758 0 l 758 131 l 256 131 l 256 431 l 731 431 l 731 558 l 256 558 l 256 856 l 747 856 l 747 986 z m 258 1117 l 621 1117 l 621 1215 l 258 1215 z "},"Ę":{"ha":833,"x_min":0,"x_max":0,"o":"m 119 986 l 119 0 l 658 0 l 608 -54 b 556 -181 571 -93 556 -136 b 682 -300 556 -249 613 -299 b 793 -261 719 -301 758 -290 l 793 -164 b 706 -194 763 -178 731 -194 b 660 -147 679 -194 660 -174 b 703 -58 660 -119 683 -86 l 744 0 l 758 0 l 758 131 l 256 131 l 256 431 l 731 431 l 731 558 l 256 558 l 256 856 l 747 856 l 747 986 z "},"Ẽ":{"ha":833,"x_min":0,"x_max":0,"o":"m 119 986 l 119 0 l 758 0 l 758 131 l 256 131 l 256 431 l 731 431 l 731 558 l 256 558 l 256 856 l 747 856 l 747 986 z m 204 1096 l 299 1096 b 353 1186 299 1160 317 1186 b 424 1142 385 1186 400 1165 b 533 1094 447 1117 476 1094 b 674 1281 618 1094 674 1168 l 579 1281 b 526 1189 579 1218 563 1189 b 446 1243 490 1189 474 1217 b 344 1282 422 1265 394 1282 b 204 1096 260 1282 206 1210 z "},"Ə":{"ha":833,"x_min":0,"x_max":0,"o":"m 650 547 l 39 547 l 40 475 b 407 -22 46 182 192 -22 b 794 493 632 -22 794 201 b 407 1008 794 797 642 1008 b 64 708 247 1008 118 890 l 207 692 b 407 878 235 801 311 878 b 650 547 543 878 638 742 z m 186 418 l 649 418 b 407 108 621 219 538 108 b 186 418 285 108 210 219 z "},"F":{"ha":833,"x_min":0,"x_max":0,"o":"m 126 986 l 126 0 l 264 0 l 264 418 l 715 418 l 715 546 l 264 546 l 264 856 l 740 856 l 740 986 z "},"G":{"ha":833,"x_min":0,"x_max":0,"o":"m 781 0 l 781 503 l 424 503 l 424 375 l 647 375 b 426 108 638 224 550 108 b 190 492 274 108 190 247 b 426 878 190 738 274 878 b 635 682 525 878 606 800 l 778 692 b 425 1008 733 882 596 1008 b 47 492 194 1008 47 808 b 425 -22 47 178 194 -22 b 668 131 544 -22 626 33 l 685 0 z "},"Ğ":{"ha":833,"x_min":0,"x_max":0,"o":"m 781 0 l 781 503 l 424 503 l 424 375 l 647 375 b 426 108 638 224 550 108 b 190 492 274 108 190 247 b 426 878 190 738 274 878 b 635 682 525 878 606 800 l 778 692 b 425 1008 733 882 596 1008 b 47 492 194 1008 47 808 b 425 -22 47 178 194 -22 b 668 131 544 -22 626 33 l 685 0 z m 215 1276 b 417 1096 217 1175 304 1096 b 618 1276 531 1096 618 1175 l 519 1276 b 417 1186 519 1226 475 1186 b 314 1276 360 1186 315 1226 z "},"Ĝ":{"ha":833,"x_min":0,"x_max":0,"o":"m 781 0 l 781 503 l 424 503 l 424 375 l 647 375 b 426 108 638 224 550 108 b 190 492 274 108 190 247 b 426 878 190 738 274 878 b 635 682 525 878 606 800 l 778 692 b 425 1008 733 882 596 1008 b 47 492 194 1008 47 808 b 425 -22 47 178 194 -22 b 668 131 544 -22 626 33 l 685 0 z m 215 1096 l 342 1096 l 417 1200 l 490 1096 l 618 1096 l 497 1263 l 335 1263 z "},"Ģ":{"ha":833,"x_min":0,"x_max":0,"o":"m 781 0 l 781 503 l 424 503 l 424 375 l 647 375 b 426 108 638 224 550 108 b 190 492 274 108 190 247 b 426 878 190 738 274 878 b 635 682 525 878 606 800 l 778 692 b 425 1008 733 882 596 1008 b 47 492 194 1008 47 808 b 425 -22 47 178 194 -22 b 668 131 544 -22 626 33 l 685 0 z m 264 -264 l 365 -264 l 492 -83 l 351 -83 z "},"Ġ":{"ha":833,"x_min":0,"x_max":0,"o":"m 781 0 l 781 503 l 424 503 l 424 375 l 647 375 b 426 108 638 224 550 108 b 190 492 274 108 190 247 b 426 878 190 738 274 878 b 635 682 525 878 606 800 l 778 692 b 425 1008 733 882 596 1008 b 47 492 194 1008 47 808 b 425 -22 47 178 194 -22 b 668 131 544 -22 626 33 l 685 0 z m 343 1090 l 489 1090 l 489 1236 l 343 1236 z "},"Ḡ":{"ha":833,"x_min":0,"x_max":0,"o":"m 781 0 l 781 503 l 424 503 l 424 375 l 647 375 b 426 108 638 224 550 108 b 190 492 274 108 190 247 b 426 878 190 738 274 878 b 635 682 525 878 606 800 l 778 692 b 425 1008 733 882 596 1008 b 47 492 194 1008 47 808 b 425 -22 47 178 194 -22 b 668 131 544 -22 626 33 l 685 0 z m 235 1115 l 597 1115 l 597 1214 l 235 1214 z "},"H":{"ha":833,"x_min":0,"x_max":0,"o":"m 92 0 l 226 0 l 226 431 l 607 431 l 607 0 l 743 0 l 743 986 l 607 986 l 607 560 l 226 560 l 226 986 l 92 986 z "},"Ħ":{"ha":833,"x_min":0,"x_max":0,"o":"m 122 986 l 122 850 l 32 850 l 32 719 l 122 719 l 122 0 l 258 0 l 258 419 l 575 419 l 575 0 l 711 0 l 711 719 l 801 719 l 801 850 l 711 850 l 711 986 l 575 986 l 575 850 l 258 850 l 258 986 z m 258 550 l 258 719 l 575 719 l 575 550 z "},"Ĥ":{"ha":833,"x_min":0,"x_max":0,"o":"m 92 0 l 226 0 l 226 431 l 607 431 l 607 0 l 743 0 l 743 986 l 607 986 l 607 560 l 226 560 l 226 986 l 92 986 z m 215 1096 l 342 1096 l 417 1200 l 490 1096 l 618 1096 l 497 1263 l 335 1263 z "},"I":{"ha":833,"x_min":0,"x_max":0,"o":"m 707 986 l 126 986 l 126 856 l 349 856 l 349 131 l 119 131 l 119 0 l 715 0 l 715 131 l 485 131 l 485 856 l 707 856 z "},"Í":{"ha":833,"x_min":0,"x_max":0,"o":"m 707 986 l 126 986 l 126 856 l 349 856 l 349 131 l 119 131 l 119 0 l 715 0 l 715 131 l 485 131 l 485 856 l 707 856 z m 365 1096 l 467 1096 l 593 1276 l 453 1276 z "},"Î":{"ha":833,"x_min":0,"x_max":0,"o":"m 707 986 l 126 986 l 126 856 l 349 856 l 349 131 l 119 131 l 119 0 l 715 0 l 715 131 l 485 131 l 485 856 l 707 856 z m 215 1096 l 342 1096 l 417 1200 l 490 1096 l 618 1096 l 497 1263 l 335 1263 z "},"Ï":{"ha":833,"x_min":0,"x_max":0,"o":"m 707 986 l 126 986 l 126 856 l 349 856 l 349 131 l 119 131 l 119 0 l 715 0 l 715 131 l 485 131 l 485 856 l 707 856 z m 238 1090 l 383 1090 l 383 1236 l 238 1236 z m 449 1090 l 594 1090 l 594 1236 l 449 1236 z "},"İ":{"ha":833,"x_min":0,"x_max":0,"o":"m 707 986 l 126 986 l 126 856 l 349 856 l 349 131 l 119 131 l 119 0 l 715 0 l 715 131 l 485 131 l 485 856 l 707 856 z m 343 1090 l 489 1090 l 489 1236 l 343 1236 z "},"Ì":{"ha":833,"x_min":0,"x_max":0,"o":"m 707 986 l 126 986 l 126 856 l 349 856 l 349 131 l 119 131 l 119 0 l 715 0 l 715 131 l 485 131 l 485 856 l 707 856 z m 215 1276 l 361 1082 l 471 1082 l 364 1276 z "},"Ī":{"ha":833,"x_min":0,"x_max":0,"o":"m 707 986 l 126 986 l 126 856 l 349 856 l 349 131 l 119 131 l 119 0 l 715 0 l 715 131 l 485 131 l 485 856 l 707 856 z m 235 1115 l 597 1115 l 597 1214 l 235 1214 z "},"Į":{"ha":833,"x_min":0,"x_max":0,"o":"m 707 986 l 126 986 l 126 856 l 349 856 l 349 131 l 119 131 l 119 0 l 629 0 l 579 -54 b 526 -181 542 -93 526 -136 b 653 -300 526 -249 583 -299 b 764 -261 690 -301 729 -290 l 764 -164 b 676 -194 733 -178 701 -194 b 631 -147 650 -194 631 -174 b 674 -58 631 -119 654 -86 l 715 0 l 715 131 l 485 131 l 485 856 l 707 856 z "},"Ĩ":{"ha":833,"x_min":0,"x_max":0,"o":"m 707 986 l 126 986 l 126 856 l 349 856 l 349 131 l 119 131 l 119 0 l 715 0 l 715 131 l 485 131 l 485 856 l 707 856 z m 182 1094 l 276 1094 b 331 1185 276 1158 294 1185 b 401 1140 363 1185 378 1164 b 511 1093 425 1115 454 1093 b 651 1279 596 1093 651 1167 l 557 1279 b 504 1188 557 1217 540 1188 b 424 1242 468 1188 451 1215 b 322 1281 400 1264 372 1281 b 182 1094 238 1281 183 1208 z "},"J":{"ha":833,"x_min":0,"x_max":0,"o":"m 186 339 l 47 328 b 378 -22 49 119 178 -22 b 710 346 588 -22 710 118 l 710 986 l 574 986 l 574 346 b 378 108 574 192 510 108 b 186 339 253 108 188 190 z "},"Ĵ":{"ha":833,"x_min":0,"x_max":0,"o":"m 186 339 l 47 328 b 378 -22 49 119 178 -22 b 710 346 588 -22 710 118 l 710 986 l 574 986 l 574 346 b 378 108 574 192 510 108 b 186 339 253 108 188 190 z m 440 1096 l 567 1096 l 642 1200 l 715 1096 l 843 1096 l 722 1263 l 560 1263 z "},"K":{"ha":833,"x_min":0,"x_max":0,"o":"m 72 986 l 72 0 l 208 0 l 208 381 l 290 467 l 631 0 l 796 0 l 385 564 l 769 986 l 599 986 l 208 572 l 208 986 z "},"Ķ":{"ha":833,"x_min":0,"x_max":0,"o":"m 72 986 l 72 0 l 208 0 l 208 381 l 290 467 l 631 0 l 796 0 l 385 564 l 769 986 l 599 986 l 208 572 l 208 986 z m 244 -264 l 346 -264 l 472 -83 l 332 -83 z "},"L":{"ha":833,"x_min":0,"x_max":0,"o":"m 124 0 l 768 0 l 768 131 l 260 131 l 260 986 l 124 986 z "},"Ĺ":{"ha":833,"x_min":0,"x_max":0,"o":"m 124 0 l 768 0 l 768 131 l 260 131 l 260 986 l 124 986 z m 140 1096 l 242 1096 l 368 1276 l 228 1276 z "},"Ľ":{"ha":833,"x_min":0,"x_max":0,"o":"m 124 0 l 768 0 l 768 131 l 260 131 l 260 986 l 124 986 z m 299 832 l 408 832 l 554 1026 l 406 1026 z "},"Ļ":{"ha":833,"x_min":0,"x_max":0,"o":"m 124 0 l 768 0 l 768 131 l 260 131 l 260 986 l 124 986 z m 293 -264 l 394 -264 l 521 -83 l 381 -83 z "},"Ł":{"ha":833,"x_min":0,"x_max":0,"o":"m -42 514 l 11 400 l 146 463 l 146 0 l 790 0 l 790 131 l 282 131 l 282 526 l 461 610 l 408 724 l 282 665 l 282 986 l 146 986 l 146 601 z "},"M":{"ha":833,"x_min":0,"x_max":0,"o":"m 82 986 l 82 0 l 218 0 l 218 817 l 361 69 l 471 69 l 615 817 l 615 0 l 751 0 l 751 986 l 544 986 l 417 306 l 289 986 z "},"N":{"ha":833,"x_min":0,"x_max":0,"o":"m 103 986 l 103 0 l 239 0 l 239 763 l 538 0 l 731 0 l 731 986 l 594 986 l 594 193 l 283 986 z "},"Ń":{"ha":833,"x_min":0,"x_max":0,"o":"m 103 986 l 103 0 l 239 0 l 239 763 l 538 0 l 731 0 l 731 986 l 594 986 l 594 193 l 283 986 z m 381 1096 l 482 1096 l 608 1276 l 468 1276 z "},"Ň":{"ha":833,"x_min":0,"x_max":0,"o":"m 103 986 l 103 0 l 239 0 l 239 763 l 538 0 l 731 0 l 731 986 l 594 986 l 594 193 l 283 986 z m 231 1263 l 350 1096 l 513 1096 l 633 1263 l 506 1263 l 432 1158 l 357 1263 z "},"Ņ":{"ha":833,"x_min":0,"x_max":0,"o":"m 103 986 l 103 0 l 239 0 l 239 763 l 538 0 l 731 0 l 731 986 l 594 986 l 594 193 l 283 986 z m 292 -264 l 393 -264 l 519 -83 l 379 -83 z "},"Ñ":{"ha":833,"x_min":0,"x_max":0,"o":"m 103 986 l 103 0 l 239 0 l 239 763 l 538 0 l 731 0 l 731 986 l 594 986 l 594 193 l 283 986 z m 197 1094 l 292 1094 b 346 1185 292 1158 310 1185 b 417 1140 378 1185 393 1164 b 526 1093 440 1115 469 1093 b 667 1279 611 1093 667 1167 l 572 1279 b 519 1188 572 1217 556 1188 b 439 1242 483 1188 467 1215 b 338 1281 415 1264 388 1281 b 197 1094 253 1281 199 1208 z "},"O":{"ha":833,"x_min":0,"x_max":0,"o":"m 417 -22 b 783 492 647 -22 783 178 b 417 1008 783 808 647 1008 b 50 492 186 1008 50 808 b 417 -22 50 178 186 -22 z m 193 492 b 417 878 193 732 274 878 b 640 492 560 878 640 732 b 417 108 640 254 560 108 b 193 492 274 108 193 254 z "},"Ó":{"ha":833,"x_min":0,"x_max":0,"o":"m 417 -22 b 783 492 647 -22 783 178 b 417 1008 783 808 647 1008 b 50 492 186 1008 50 808 b 417 -22 50 178 186 -22 z m 193 492 b 417 878 193 732 274 878 b 640 492 560 878 640 732 b 417 108 640 254 560 108 b 193 492 274 108 193 254 z m 365 1096 l 467 1096 l 593 1276 l 453 1276 z "},"Ô":{"ha":833,"x_min":0,"x_max":0,"o":"m 417 -22 b 783 492 647 -22 783 178 b 417 1008 783 808 647 1008 b 50 492 186 1008 50 808 b 417 -22 50 178 186 -22 z m 193 492 b 417 878 193 732 274 878 b 640 492 560 878 640 732 b 417 108 640 254 560 108 b 193 492 274 108 193 254 z m 215 1096 l 342 1096 l 417 1200 l 490 1096 l 618 1096 l 497 1263 l 335 1263 z "},"Ö":{"ha":833,"x_min":0,"x_max":0,"o":"m 417 -22 b 783 492 647 -22 783 178 b 417 1008 783 808 647 1008 b 50 492 186 1008 50 808 b 417 -22 50 178 186 -22 z m 193 492 b 417 878 193 732 274 878 b 640 492 560 878 640 732 b 417 108 640 254 560 108 b 193 492 274 108 193 254 z m 238 1090 l 383 1090 l 383 1236 l 238 1236 z m 449 1090 l 594 1090 l 594 1236 l 449 1236 z "},"Ò":{"ha":833,"x_min":0,"x_max":0,"o":"m 417 -22 b 783 492 647 -22 783 178 b 417 1008 783 808 647 1008 b 50 492 186 1008 50 808 b 417 -22 50 178 186 -22 z m 193 492 b 417 878 193 732 274 878 b 640 492 560 878 640 732 b 417 108 640 254 560 108 b 193 492 274 108 193 254 z m 215 1276 l 361 1082 l 471 1082 l 364 1276 z "},"Ő":{"ha":833,"x_min":0,"x_max":0,"o":"m 417 -22 b 783 492 647 -22 783 178 b 417 1008 783 808 647 1008 b 50 492 186 1008 50 808 b 417 -22 50 178 186 -22 z m 193 492 b 417 878 193 732 274 878 b 640 492 560 878 640 732 b 417 108 640 254 560 108 b 193 492 274 108 193 254 z m 258 1096 l 360 1096 l 486 1276 l 346 1276 z m 439 1096 l 540 1096 l 667 1276 l 526 1276 z "},"Ō":{"ha":833,"x_min":0,"x_max":0,"o":"m 417 -22 b 783 492 647 -22 783 178 b 417 1008 783 808 647 1008 b 50 492 186 1008 50 808 b 417 -22 50 178 186 -22 z m 193 492 b 417 878 193 732 274 878 b 640 492 560 878 640 732 b 417 108 640 254 560 108 b 193 492 274 108 193 254 z m 235 1115 l 597 1115 l 597 1214 l 235 1214 z "},"Ø":{"ha":833,"x_min":0,"x_max":0,"o":"m 417 -22 b 783 492 647 -22 783 178 b 693 860 783 644 751 771 l 779 1008 l 651 1008 l 614 944 b 417 1008 560 986 493 1008 b 50 492 186 1008 50 808 b 139 129 50 342 81 218 l 50 -22 l 179 -22 l 217 43 b 417 -22 272 0 339 -22 z m 193 492 b 417 878 193 732 274 878 b 544 825 468 878 510 860 l 224 275 b 193 492 203 333 193 407 z m 288 163 l 608 715 b 640 492 629 656 640 579 b 417 108 640 254 560 108 b 288 163 365 108 321 128 z "},"Õ":{"ha":833,"x_min":0,"x_max":0,"o":"m 417 -22 b 783 492 647 -22 783 178 b 417 1008 783 808 647 1008 b 50 492 186 1008 50 808 b 417 -22 50 178 186 -22 z m 182 1094 l 276 1094 b 331 1185 276 1158 294 1185 b 401 1140 363 1185 378 1164 b 511 1093 425 1115 454 1093 b 651 1279 596 1093 651 1167 l 557 1279 b 504 1188 557 1217 540 1188 b 424 1242 468 1188 451 1215 b 322 1281 400 1264 372 1281 b 182 1094 238 1281 183 1208 z m 193 492 b 417 878 193 732 274 878 b 640 492 560 878 640 732 b 417 108 640 254 560 108 b 193 492 274 108 193 254 z "},"Œ":{"ha":833,"x_min":0,"x_max":0,"o":"m 815 986 l 458 986 l 458 942 b 299 1008 415 985 361 1008 b 10 492 117 1008 10 811 b 299 -22 10 175 117 -22 b 458 44 361 -22 415 1 l 458 0 l 822 0 l 822 129 l 593 129 l 593 431 l 806 431 l 806 558 l 593 558 l 593 857 l 815 857 z m 149 492 b 299 878 149 735 189 878 b 447 492 408 878 447 735 b 299 108 447 251 408 108 b 149 492 189 108 149 251 z "},"P":{"ha":833,"x_min":0,"x_max":0,"o":"m 426 986 l 119 986 l 119 0 l 256 0 l 256 374 l 426 374 b 776 683 644 374 776 492 b 426 986 776 871 644 986 z m 256 504 l 256 856 l 422 856 b 633 683 563 856 633 797 b 422 504 633 565 563 504 z "},"Þ":{"ha":833,"x_min":0,"x_max":0,"o":"m 256 0 l 256 206 l 440 206 b 790 511 660 206 790 319 b 440 810 790 699 660 810 l 256 810 l 256 986 l 119 986 l 119 0 z m 256 336 l 256 679 l 439 679 b 647 511 578 679 647 622 b 439 336 647 394 578 336 z "},"Q":{"ha":833,"x_min":0,"x_max":0,"o":"m 417 -22 b 550 4 465 -22 510 -14 l 617 -96 l 758 -96 l 647 71 b 783 492 735 158 783 304 b 417 1008 783 808 647 1008 b 50 492 186 1008 50 808 b 417 -22 50 178 186 -22 z m 193 492 b 417 878 193 732 274 878 b 640 492 560 878 640 732 b 568 189 640 360 615 256 l 501 289 l 360 289 l 475 117 b 417 108 457 111 438 108 b 193 492 274 108 193 254 z "},"R":{"ha":833,"x_min":0,"x_max":0,"o":"m 414 986 l 97 986 l 97 0 l 233 0 l 233 389 l 401 389 b 600 274 536 389 592 360 l 625 0 l 763 0 l 735 288 b 592 457 725 389 685 439 b 751 688 678 485 751 574 b 414 986 751 871 621 986 z m 233 518 l 233 856 l 413 856 b 608 686 538 856 608 794 b 413 518 608 579 538 518 z "},"Ŕ":{"ha":833,"x_min":0,"x_max":0,"o":"m 414 986 l 97 986 l 97 0 l 233 0 l 233 389 l 401 389 b 600 274 536 389 592 360 l 625 0 l 763 0 l 735 288 b 592 457 725 389 685 439 b 751 688 678 485 751 574 b 414 986 751 871 621 986 z m 233 518 l 233 856 l 413 856 b 608 686 538 856 608 794 b 413 518 608 579 538 518 z m 349 1096 l 450 1096 l 576 1276 l 436 1276 z "},"Ř":{"ha":833,"x_min":0,"x_max":0,"o":"m 414 986 l 97 986 l 97 0 l 233 0 l 233 389 l 401 389 b 600 274 536 389 592 360 l 625 0 l 763 0 l 735 288 b 592 457 725 389 685 439 b 751 688 678 485 751 574 b 414 986 751 871 621 986 z m 200 1263 l 319 1096 l 482 1096 l 603 1263 l 475 1263 l 401 1158 l 326 1263 z m 233 518 l 233 856 l 413 856 b 608 686 538 856 608 794 b 413 518 608 579 538 518 z "},"Ŗ":{"ha":833,"x_min":0,"x_max":0,"o":"m 414 986 l 97 986 l 97 0 l 233 0 l 233 389 l 401 389 b 600 274 536 389 592 360 l 625 0 l 763 0 l 735 288 b 592 457 725 389 685 439 b 751 688 678 485 751 574 b 414 986 751 871 621 986 z m 233 518 l 233 856 l 413 856 b 608 686 538 856 608 794 b 413 518 608 579 538 518 z m 288 -264 l 389 -264 l 515 -83 l 375 -83 z "},"S":{"ha":833,"x_min":0,"x_max":0,"o":"m 203 326 l 63 318 b 442 -17 79 115 235 -17 b 774 265 611 -17 774 81 b 464 557 774 417 632 510 b 224 731 346 588 225 619 b 394 878 222 821 300 878 b 615 683 510 878 599 801 l 756 692 b 397 1008 735 876 596 1008 b 83 732 217 1008 83 901 b 381 451 83 574 225 492 b 633 254 553 406 633 349 b 450 114 633 161 557 114 b 203 326 314 114 228 199 z "},"Ś":{"ha":833,"x_min":0,"x_max":0,"o":"m 203 326 l 63 318 b 442 -17 79 115 235 -17 b 774 265 611 -17 774 81 b 464 557 774 417 632 510 b 224 731 346 588 225 619 b 394 878 222 821 300 878 b 615 683 510 878 599 801 l 756 692 b 397 1008 735 876 596 1008 b 83 732 217 1008 83 901 b 381 451 83 574 225 492 b 633 254 553 406 633 349 b 450 114 633 161 557 114 b 203 326 314 114 228 199 z m 365 1096 l 467 1096 l 593 1276 l 453 1276 z "},"Ꞌ":{"ha":833,"x_min":0,"x_max":0,"o":"m 350 986 l 350 794 l 369 518 l 464 518 l 483 794 l 483 986 z "},"Š":{"ha":833,"x_min":0,"x_max":0,"o":"m 203 326 l 63 318 b 442 -17 79 115 235 -17 b 774 265 611 -17 774 81 b 464 557 774 417 632 510 b 224 731 346 588 225 619 b 394 878 222 821 300 878 b 615 683 510 878 599 801 l 756 692 b 397 1008 735 876 596 1008 b 83 732 217 1008 83 901 b 381 451 83 574 225 492 b 633 254 553 406 633 349 b 450 114 633 161 557 114 b 203 326 314 114 228 199 z m 217 1263 l 336 1096 l 499 1096 l 619 1263 l 492 1263 l 418 1158 l 343 1263 z "},"Ş":{"ha":833,"x_min":0,"x_max":0,"o":"m 203 326 l 63 318 b 371 -11 78 139 200 15 l 321 -65 l 363 -119 b 464 -169 418 -106 464 -125 b 403 -226 464 -203 440 -226 b 304 -154 356 -226 324 -179 l 239 -215 b 410 -311 294 -279 342 -311 b 550 -178 488 -311 550 -253 b 415 -50 550 -103 493 -50 l 446 -17 b 774 265 614 -15 774 82 b 464 557 774 417 632 510 b 224 731 346 588 225 619 b 394 878 222 821 300 878 b 615 683 510 878 599 801 l 756 692 b 397 1008 735 876 596 1008 b 83 732 217 1008 83 901 b 381 451 83 574 225 492 b 633 254 553 406 633 349 b 450 114 633 161 557 114 b 203 326 314 114 228 199 z "},"Ŝ":{"ha":833,"x_min":0,"x_max":0,"o":"m 203 326 l 63 318 b 442 -17 79 115 235 -17 b 774 265 611 -17 774 81 b 464 557 774 417 632 510 b 224 731 346 588 225 619 b 394 878 222 821 300 878 b 615 683 510 878 599 801 l 756 692 b 397 1008 735 876 596 1008 b 83 732 217 1008 83 901 b 381 451 83 574 225 492 b 633 254 553 406 633 349 b 450 114 633 161 557 114 b 203 326 314 114 228 199 z m 215 1096 l 342 1096 l 417 1200 l 490 1096 l 618 1096 l 497 1263 l 335 1263 z "},"Ș":{"ha":833,"x_min":0,"x_max":0,"o":"m 203 326 l 63 318 b 442 -17 79 115 235 -17 b 774 265 611 -17 774 81 b 464 557 774 417 632 510 b 224 731 346 588 225 619 b 394 878 222 821 300 878 b 615 683 510 878 599 801 l 756 692 b 397 1008 735 876 596 1008 b 83 732 217 1008 83 901 b 381 451 83 574 225 492 b 633 254 553 406 633 349 b 450 114 633 161 557 114 b 203 326 314 114 228 199 z m 265 -264 l 367 -264 l 493 -83 l 353 -83 z "},"ẞ":{"ha":833,"x_min":0,"x_max":0,"o":"m 440 131 l 301 131 l 301 0 l 440 0 b 796 306 658 0 796 124 b 475 588 796 467 668 576 l 733 838 l 733 986 l 75 986 l 75 0 l 211 0 l 211 854 l 564 854 l 315 613 l 315 478 l 415 479 b 656 301 564 482 656 414 b 440 131 656 197 574 131 z "},"T":{"ha":833,"x_min":0,"x_max":0,"o":"m 776 986 l 57 986 l 57 856 l 349 856 l 349 0 l 485 0 l 485 856 l 776 856 z "},"Ť":{"ha":833,"x_min":0,"x_max":0,"o":"m 776 986 l 57 986 l 57 856 l 349 856 l 349 0 l 485 0 l 485 856 l 776 856 z m 217 1263 l 336 1096 l 499 1096 l 619 1263 l 492 1263 l 418 1158 l 343 1263 z "},"Ţ":{"ha":833,"x_min":0,"x_max":0,"o":"m 776 986 l 57 986 l 57 856 l 349 856 l 349 0 l 379 0 l 319 -65 l 361 -119 b 463 -169 417 -106 463 -125 b 401 -226 463 -203 439 -226 b 303 -154 354 -226 322 -179 l 238 -215 b 408 -311 293 -279 340 -311 b 549 -178 486 -311 549 -253 b 414 -50 549 -103 492 -50 l 460 0 l 485 0 l 485 856 l 776 856 z "},"Ț":{"ha":833,"x_min":0,"x_max":0,"o":"m 776 986 l 57 986 l 57 856 l 349 856 l 349 0 l 485 0 l 485 856 l 776 856 z m 264 -264 l 365 -264 l 492 -83 l 351 -83 z "},"U":{"ha":833,"x_min":0,"x_max":0,"o":"m 750 346 l 750 988 l 614 988 l 614 342 b 417 108 614 193 549 108 b 219 342 285 108 219 193 l 219 988 l 83 988 l 83 346 b 417 -22 83 119 206 -22 b 750 346 628 -22 750 119 z "},"Ú":{"ha":833,"x_min":0,"x_max":0,"o":"m 750 346 l 750 988 l 614 988 l 614 342 b 417 108 614 193 549 108 b 219 342 285 108 219 193 l 219 988 l 83 988 l 83 346 b 417 -22 83 119 206 -22 b 750 346 628 -22 750 119 z m 365 1096 l 467 1096 l 593 1276 l 453 1276 z "},"Ŭ":{"ha":833,"x_min":0,"x_max":0,"o":"m 750 346 l 750 988 l 614 988 l 614 342 b 417 108 614 193 549 108 b 219 342 285 108 219 193 l 219 988 l 83 988 l 83 346 b 417 -22 83 119 206 -22 b 750 346 628 -22 750 119 z m 215 1276 b 417 1096 217 1175 304 1096 b 618 1276 531 1096 618 1175 l 519 1276 b 417 1186 519 1226 475 1186 b 314 1276 360 1186 315 1226 z "},"Û":{"ha":833,"x_min":0,"x_max":0,"o":"m 750 346 l 750 988 l 614 988 l 614 342 b 417 108 614 193 549 108 b 219 342 285 108 219 193 l 219 988 l 83 988 l 83 346 b 417 -22 83 119 206 -22 b 750 346 628 -22 750 119 z m 215 1096 l 342 1096 l 417 1200 l 490 1096 l 618 1096 l 497 1263 l 335 1263 z "},"Ü":{"ha":833,"x_min":0,"x_max":0,"o":"m 750 346 l 750 988 l 614 988 l 614 342 b 417 108 614 193 549 108 b 219 342 285 108 219 193 l 219 988 l 83 988 l 83 346 b 417 -22 83 119 206 -22 b 750 346 628 -22 750 119 z m 238 1090 l 383 1090 l 383 1236 l 238 1236 z m 449 1090 l 594 1090 l 594 1236 l 449 1236 z "},"Ù":{"ha":833,"x_min":0,"x_max":0,"o":"m 750 346 l 750 988 l 614 988 l 614 342 b 417 108 614 193 549 108 b 219 342 285 108 219 193 l 219 988 l 83 988 l 83 346 b 417 -22 83 119 206 -22 b 750 346 628 -22 750 119 z m 215 1276 l 361 1082 l 471 1082 l 364 1276 z "},"Ű":{"ha":833,"x_min":0,"x_max":0,"o":"m 750 346 l 750 988 l 614 988 l 614 342 b 417 108 614 193 549 108 b 219 342 285 108 219 193 l 219 988 l 83 988 l 83 346 b 417 -22 83 119 206 -22 b 750 346 628 -22 750 119 z m 258 1096 l 360 1096 l 486 1276 l 346 1276 z m 439 1096 l 540 1096 l 667 1276 l 526 1276 z "},"Ū":{"ha":833,"x_min":0,"x_max":0,"o":"m 750 346 l 750 988 l 614 988 l 614 342 b 417 108 614 193 549 108 b 219 342 285 108 219 193 l 219 988 l 83 988 l 83 346 b 417 -22 83 119 206 -22 b 750 346 628 -22 750 119 z m 235 1115 l 597 1115 l 597 1214 l 235 1214 z "},"Ų":{"ha":833,"x_min":0,"x_max":0,"o":"m 750 346 l 750 988 l 614 988 l 614 342 b 417 108 614 193 549 108 b 219 342 285 108 219 193 l 219 988 l 83 988 l 83 346 b 417 -22 83 119 206 -22 b 443 -21 425 -22 435 -22 l 413 -54 b 360 -181 375 -93 360 -136 b 486 -300 360 -249 417 -299 b 597 -261 524 -301 563 -290 l 597 -164 b 510 -194 567 -178 535 -194 b 464 -147 483 -194 464 -174 b 507 -58 464 -119 488 -86 l 549 0 b 750 346 678 47 750 172 z "},"Ů":{"ha":833,"x_min":0,"x_max":0,"o":"m 750 346 l 750 988 l 614 988 l 614 342 b 417 108 614 193 549 108 b 219 342 285 108 219 193 l 219 988 l 83 988 l 83 346 b 417 -22 83 119 206 -22 b 750 346 628 -22 750 119 z m 272 1204 b 417 1061 272 1125 336 1061 b 561 1204 497 1061 561 1125 b 417 1351 561 1286 497 1351 b 272 1204 336 1351 272 1286 z m 360 1206 b 417 1263 360 1238 385 1263 b 474 1206 449 1263 474 1238 b 417 1150 474 1175 449 1150 b 360 1206 385 1150 360 1175 z "},"Ũ":{"ha":833,"x_min":0,"x_max":0,"o":"m 750 346 l 750 988 l 614 988 l 614 342 b 417 108 614 193 549 108 b 219 342 285 108 219 193 l 219 988 l 83 988 l 83 346 b 417 -22 83 119 206 -22 b 750 346 628 -22 750 119 z m 182 1094 l 276 1094 b 331 1185 276 1158 294 1185 b 401 1140 363 1185 378 1164 b 511 1093 425 1115 454 1093 b 651 1279 596 1093 651 1167 l 557 1279 b 504 1188 557 1217 540 1188 b 424 1242 468 1188 451 1215 b 322 1281 400 1264 372 1281 b 182 1094 238 1281 183 1208 z "},"V":{"ha":833,"x_min":0,"x_max":0,"o":"m 31 986 l 333 0 l 500 0 l 803 986 l 656 986 l 417 167 l 178 986 z "},"W":{"ha":833,"x_min":0,"x_max":0,"o":"m 142 0 l 336 0 l 417 667 l 497 0 l 692 0 l 792 986 l 653 986 l 574 176 l 478 903 l 356 903 l 260 176 l 181 986 l 42 986 z "},"Ẃ":{"ha":833,"x_min":0,"x_max":0,"o":"m 142 0 l 336 0 l 417 667 l 497 0 l 692 0 l 792 986 l 653 986 l 574 176 l 478 903 l 356 903 l 260 176 l 181 986 l 42 986 z m 365 1096 l 467 1096 l 593 1276 l 453 1276 z "},"Ŵ":{"ha":833,"x_min":0,"x_max":0,"o":"m 142 0 l 336 0 l 417 667 l 497 0 l 692 0 l 792 986 l 653 986 l 574 176 l 478 903 l 356 903 l 260 176 l 181 986 l 42 986 z m 215 1096 l 342 1096 l 417 1200 l 490 1096 l 618 1096 l 497 1263 l 335 1263 z "},"Ẅ":{"ha":833,"x_min":0,"x_max":0,"o":"m 142 0 l 336 0 l 417 667 l 497 0 l 692 0 l 792 986 l 653 986 l 574 176 l 478 903 l 356 903 l 260 176 l 181 986 l 42 986 z m 238 1090 l 383 1090 l 383 1236 l 238 1236 z m 449 1090 l 594 1090 l 594 1236 l 449 1236 z "},"Ẁ":{"ha":833,"x_min":0,"x_max":0,"o":"m 142 0 l 336 0 l 417 667 l 497 0 l 692 0 l 792 986 l 653 986 l 574 176 l 478 903 l 356 903 l 260 176 l 181 986 l 42 986 z m 215 1276 l 361 1082 l 471 1082 l 364 1276 z "},"X":{"ha":833,"x_min":0,"x_max":0,"o":"m 607 986 l 418 601 l 229 986 l 71 986 l 331 496 l 68 0 l 224 0 l 415 390 l 607 0 l 765 0 l 503 494 l 763 986 z "},"Y":{"ha":833,"x_min":0,"x_max":0,"o":"m 61 986 l 350 401 l 350 0 l 486 0 l 486 401 l 774 986 l 621 986 l 418 557 l 214 986 z "},"Ý":{"ha":833,"x_min":0,"x_max":0,"o":"m 61 986 l 350 401 l 350 0 l 486 0 l 486 401 l 774 986 l 621 986 l 418 557 l 214 986 z m 367 1096 l 468 1096 l 594 1276 l 454 1276 z "},"Ŷ":{"ha":833,"x_min":0,"x_max":0,"o":"m 61 986 l 350 401 l 350 0 l 486 0 l 486 401 l 774 986 l 621 986 l 418 557 l 214 986 z m 217 1096 l 343 1096 l 418 1200 l 492 1096 l 619 1096 l 499 1263 l 336 1263 z "},"Ÿ":{"ha":833,"x_min":0,"x_max":0,"o":"m 61 986 l 350 401 l 350 0 l 486 0 l 486 401 l 774 986 l 621 986 l 418 557 l 214 986 z m 239 1090 l 385 1090 l 385 1236 l 239 1236 z m 450 1090 l 596 1090 l 596 1236 l 450 1236 z "},"Ỳ":{"ha":833,"x_min":0,"x_max":0,"o":"m 61 986 l 350 401 l 350 0 l 486 0 l 486 401 l 774 986 l 621 986 l 418 557 l 214 986 z m 217 1276 l 363 1082 l 472 1082 l 365 1276 z "},"Ỹ":{"ha":833,"x_min":0,"x_max":0,"o":"m 61 986 l 350 401 l 350 0 l 486 0 l 486 401 l 774 986 l 621 986 l 418 557 l 214 986 z m 183 1094 l 278 1094 b 332 1185 278 1158 296 1185 b 403 1140 364 1185 379 1164 b 513 1093 426 1115 456 1093 b 653 1279 597 1093 653 1167 l 558 1279 b 506 1188 558 1217 542 1188 b 425 1242 469 1188 453 1215 b 324 1281 401 1264 374 1281 b 183 1094 239 1281 185 1208 z "},"Z":{"ha":833,"x_min":0,"x_max":0,"o":"m 754 846 l 754 986 l 90 986 l 90 856 l 594 856 l 67 138 l 67 0 l 765 0 l 765 131 l 228 131 z "},"Ź":{"ha":833,"x_min":0,"x_max":0,"o":"m 754 846 l 754 986 l 90 986 l 90 856 l 594 856 l 67 138 l 67 0 l 765 0 l 765 131 l 228 131 z m 365 1096 l 467 1096 l 593 1276 l 453 1276 z "},"Ž":{"ha":833,"x_min":0,"x_max":0,"o":"m 754 846 l 754 986 l 90 986 l 90 856 l 594 856 l 67 138 l 67 0 l 765 0 l 765 131 l 228 131 z m 217 1263 l 336 1096 l 499 1096 l 619 1263 l 492 1263 l 418 1158 l 343 1263 z "},"Ż":{"ha":833,"x_min":0,"x_max":0,"o":"m 754 846 l 754 986 l 90 986 l 90 856 l 594 856 l 67 138 l 67 0 l 765 0 l 765 131 l 228 131 z m 343 1090 l 489 1090 l 489 1236 l 343 1236 z "},"a":{"ha":833,"x_min":0,"x_max":0,"o":"m 100 518 l 242 508 b 404 629 258 579 319 629 b 569 460 504 629 568 574 l 369 421 b 88 193 201 388 88 346 b 356 -17 88 61 208 -17 b 585 113 471 -17 556 44 b 740 0 599 47 651 0 l 778 0 l 778 117 l 747 117 b 703 163 717 117 703 131 l 703 444 b 406 753 703 649 585 753 b 100 518 250 753 129 660 z m 228 196 b 413 317 226 290 308 297 l 572 344 l 572 313 b 372 100 572 178 485 100 b 228 196 274 100 228 143 z "},"á":{"ha":833,"x_min":0,"x_max":0,"o":"m 100 518 l 242 508 b 404 629 258 579 319 629 b 569 460 504 629 568 574 l 369 421 b 88 193 201 388 88 346 b 356 -17 88 61 208 -17 b 585 113 471 -17 556 44 b 740 0 599 47 651 0 l 778 0 l 778 117 l 747 117 b 703 163 717 117 703 131 l 703 444 b 406 753 703 649 585 753 b 100 518 250 753 129 660 z m 228 196 b 413 317 226 290 308 297 l 572 344 l 572 313 b 372 100 572 178 485 100 b 228 196 274 100 228 143 z m 354 846 l 456 846 l 582 1026 l 442 1026 z "},"ă":{"ha":833,"x_min":0,"x_max":0,"o":"m 100 518 l 242 508 b 404 629 258 579 319 629 b 569 460 504 629 568 574 l 369 421 b 88 193 201 388 88 346 b 356 -17 88 61 208 -17 b 585 113 471 -17 556 44 b 740 0 599 47 651 0 l 778 0 l 778 117 l 747 117 b 703 163 717 117 703 131 l 703 444 b 406 753 703 649 585 753 b 100 518 250 753 129 660 z m 204 1026 b 406 846 206 925 293 846 b 607 1026 519 846 607 925 l 508 1026 b 406 936 508 976 464 936 b 303 1026 349 936 304 976 z m 228 196 b 413 317 226 290 308 297 l 572 344 l 572 313 b 372 100 572 178 485 100 b 228 196 274 100 228 143 z "},"ǎ":{"ha":833,"x_min":0,"x_max":0,"o":"m 100 518 l 242 508 b 404 629 258 579 319 629 b 569 460 504 629 568 574 l 369 421 b 88 193 201 388 88 346 b 356 -17 88 61 208 -17 b 585 113 471 -17 556 44 b 740 0 599 47 651 0 l 778 0 l 778 117 l 747 117 b 703 163 717 117 703 131 l 703 444 b 406 753 703 649 585 753 b 100 518 250 753 129 660 z m 206 1013 l 325 846 l 488 846 l 608 1013 l 481 1013 l 407 908 l 332 1013 z m 228 196 b 413 317 226 290 308 297 l 572 344 l 572 313 b 372 100 572 178 485 100 b 228 196 274 100 228 143 z "},"â":{"ha":833,"x_min":0,"x_max":0,"o":"m 100 518 l 242 508 b 404 629 258 579 319 629 b 569 460 504 629 568 574 l 369 421 b 88 193 201 388 88 346 b 356 -17 88 61 208 -17 b 585 113 471 -17 556 44 b 740 0 599 47 651 0 l 778 0 l 778 117 l 747 117 b 703 163 717 117 703 131 l 703 444 b 406 753 703 649 585 753 b 100 518 250 753 129 660 z m 204 846 l 331 846 l 406 950 l 479 846 l 607 846 l 486 1013 l 324 1013 z m 228 196 b 413 317 226 290 308 297 l 572 344 l 572 313 b 372 100 572 178 485 100 b 228 196 274 100 228 143 z "},"ä":{"ha":833,"x_min":0,"x_max":0,"o":"m 100 518 l 242 508 b 404 629 258 579 319 629 b 569 460 504 629 568 574 l 369 421 b 88 193 201 388 88 346 b 356 -17 88 61 208 -17 b 585 113 471 -17 556 44 b 740 0 599 47 651 0 l 778 0 l 778 117 l 747 117 b 703 163 717 117 703 131 l 703 444 b 406 753 703 649 585 753 b 100 518 250 753 129 660 z m 225 840 l 371 840 l 371 986 l 225 986 z m 228 196 b 413 317 226 290 308 297 l 572 344 l 572 313 b 372 100 572 178 485 100 b 228 196 274 100 228 143 z m 438 840 l 583 840 l 583 986 l 438 986 z "},"à":{"ha":833,"x_min":0,"x_max":0,"o":"m 100 518 l 242 508 b 404 629 258 579 319 629 b 569 460 504 629 568 574 l 369 421 b 88 193 201 388 88 346 b 356 -17 88 61 208 -17 b 585 113 471 -17 556 44 b 740 0 599 47 651 0 l 778 0 l 778 117 l 747 117 b 703 163 717 117 703 131 l 703 444 b 406 753 703 649 585 753 b 100 518 250 753 129 660 z m 204 1026 l 350 832 l 460 832 l 353 1026 z m 228 196 b 413 317 226 290 308 297 l 572 344 l 572 313 b 372 100 572 178 485 100 b 228 196 274 100 228 143 z "},"ā":{"ha":833,"x_min":0,"x_max":0,"o":"m 100 518 l 242 508 b 404 629 258 579 319 629 b 569 460 504 629 568 574 l 369 421 b 88 193 201 388 88 346 b 356 -17 88 61 208 -17 b 585 113 471 -17 556 44 b 740 0 599 47 651 0 l 778 0 l 778 117 l 747 117 b 703 163 717 117 703 131 l 703 444 b 406 753 703 649 585 753 b 100 518 250 753 129 660 z m 224 865 l 586 865 l 586 964 l 224 964 z m 228 196 b 413 317 226 290 308 297 l 572 344 l 572 313 b 372 100 572 178 485 100 b 228 196 274 100 228 143 z "},"ą":{"ha":833,"x_min":0,"x_max":0,"o":"m 100 518 l 242 508 b 404 629 258 579 319 629 b 569 460 504 629 568 574 l 369 421 b 88 193 201 388 88 346 b 356 -17 88 61 208 -17 b 585 113 471 -17 556 44 b 697 4 596 58 635 17 l 693 4 l 643 -50 b 590 -176 606 -89 590 -132 b 717 -296 590 -244 647 -294 b 828 -257 754 -297 793 -286 l 828 -160 b 740 -190 797 -174 765 -190 b 694 -143 714 -190 694 -169 b 738 -54 694 -115 718 -82 l 776 0 l 778 0 l 778 3 l 779 4 l 778 4 l 778 117 l 747 117 b 703 163 717 117 703 131 l 703 444 b 406 753 703 649 585 753 b 100 518 250 753 129 660 z m 228 196 b 413 317 226 290 308 297 l 572 344 l 572 313 b 372 100 572 178 485 100 b 228 196 274 100 228 143 z "},"å":{"ha":833,"x_min":0,"x_max":0,"o":"m 100 518 l 242 508 b 404 629 258 579 319 629 b 569 460 504 629 568 574 l 369 421 b 88 193 201 388 88 346 b 356 -17 88 61 208 -17 b 585 113 471 -17 556 44 b 740 0 599 47 651 0 l 778 0 l 778 117 l 747 117 b 703 163 717 117 703 131 l 703 444 b 406 753 703 649 585 753 b 100 518 250 753 129 660 z m 228 196 b 413 317 226 290 308 297 l 572 344 l 572 313 b 372 100 572 178 485 100 b 228 196 274 100 228 143 z m 260 954 b 404 811 260 875 324 811 b 549 954 485 811 549 875 b 404 1101 549 1036 485 1101 b 260 954 324 1101 260 1036 z m 347 956 b 404 1013 347 988 372 1013 b 461 956 436 1013 461 988 b 404 900 461 925 436 900 b 347 956 372 900 347 925 z "},"ã":{"ha":833,"x_min":0,"x_max":0,"o":"m 100 518 l 242 508 b 404 629 258 579 319 629 b 569 460 504 629 568 574 l 369 421 b 88 193 201 388 88 346 b 356 -17 88 61 208 -17 b 585 113 471 -17 556 44 b 740 0 599 47 651 0 l 778 0 l 778 117 l 747 117 b 703 163 717 117 703 131 l 703 444 b 406 753 703 649 585 753 b 100 518 250 753 129 660 z m 171 844 l 265 844 b 319 935 265 908 283 935 b 390 890 351 935 367 914 b 500 843 414 865 443 843 b 640 1029 585 843 640 917 l 546 1029 b 493 938 546 967 529 938 b 413 992 457 938 440 965 b 311 1031 389 1014 361 1031 b 171 844 226 1031 172 958 z m 228 196 b 413 317 226 290 308 297 l 572 344 l 572 313 b 372 100 572 178 485 100 b 228 196 274 100 228 143 z "},"æ":{"ha":833,"x_min":0,"x_max":0,"o":"m 26 518 l 151 508 b 239 629 164 579 181 629 b 324 450 300 629 324 579 l 214 422 b 17 196 92 392 17 307 b 204 -17 17 64 101 -14 b 382 139 293 -14 357 42 b 588 -17 421 38 492 -17 b 810 213 711 -17 775 50 l 681 224 b 588 107 665 139 638 107 b 475 329 524 107 481 186 l 818 329 l 817 382 b 588 753 810 631 729 753 b 410 653 511 753 451 718 b 240 753 376 719 319 753 b 26 518 122 753 50 675 z m 143 199 b 247 314 143 250 179 297 l 326 333 l 326 301 b 218 107 326 172 294 111 b 143 199 175 103 143 140 z m 476 438 b 588 629 490 576 524 629 b 686 438 644 629 674 576 z "},"b":{"ha":833,"x_min":0,"x_max":0,"o":"m 108 986 l 108 0 l 229 0 l 233 103 b 461 -17 275 28 350 -17 b 768 368 669 -17 768 163 b 461 753 768 574 669 753 b 240 640 356 753 282 714 l 240 986 z m 229 368 b 429 635 229 507 286 635 b 629 368 572 635 629 508 b 429 107 629 233 572 107 b 229 368 286 107 229 235 z "},"c":{"ha":833,"x_min":0,"x_max":0,"o":"m 610 481 l 749 490 b 435 753 729 651 590 753 b 93 368 228 753 93 603 b 435 -17 93 133 228 -17 b 754 258 594 -17 732 89 l 614 267 b 435 107 599 167 524 107 b 232 368 307 107 232 206 b 435 629 232 532 307 629 b 610 481 519 629 594 574 z "},"ć":{"ha":833,"x_min":0,"x_max":0,"o":"m 610 481 l 749 490 b 435 753 729 651 590 753 b 93 368 228 753 93 603 b 435 -17 93 133 228 -17 b 754 258 594 -17 732 89 l 614 267 b 435 107 599 167 524 107 b 232 368 307 107 232 206 b 435 629 232 532 307 629 b 610 481 519 629 594 574 z m 383 846 l 485 846 l 611 1026 l 471 1026 z "},"č":{"ha":833,"x_min":0,"x_max":0,"o":"m 610 481 l 749 490 b 435 753 729 651 590 753 b 93 368 228 753 93 603 b 435 -17 93 133 228 -17 b 754 258 594 -17 732 89 l 614 267 b 435 107 599 167 524 107 b 232 368 307 107 232 206 b 435 629 232 532 307 629 b 610 481 519 629 594 574 z m 235 1013 l 354 846 l 517 846 l 638 1013 l 510 1013 l 436 908 l 361 1013 z "},"ç":{"ha":833,"x_min":0,"x_max":0,"o":"m 610 481 l 749 490 b 435 753 729 651 590 753 b 93 368 228 753 93 603 b 385 -14 93 153 207 8 l 338 -65 l 379 -119 b 481 -169 435 -106 481 -125 b 419 -226 481 -203 457 -226 b 321 -154 372 -226 340 -179 l 256 -215 b 426 -311 311 -279 358 -311 b 567 -178 504 -311 567 -253 b 432 -50 567 -103 510 -50 l 464 -15 b 754 258 611 -4 733 99 l 614 267 b 435 107 599 167 524 107 b 232 368 307 107 232 206 b 435 629 232 532 307 629 b 610 481 519 629 594 574 z "},"ĉ":{"ha":833,"x_min":0,"x_max":0,"o":"m 610 481 l 749 490 b 435 753 729 651 590 753 b 93 368 228 753 93 603 b 435 -17 93 133 228 -17 b 754 258 594 -17 732 89 l 614 267 b 435 107 599 167 524 107 b 232 368 307 107 232 206 b 435 629 232 532 307 629 b 610 481 519 629 594 574 z m 233 846 l 360 846 l 435 950 l 508 846 l 636 846 l 515 1013 l 353 1013 z "},"ċ":{"ha":833,"x_min":0,"x_max":0,"o":"m 610 481 l 749 490 b 435 753 729 651 590 753 b 93 368 228 753 93 603 b 435 -17 93 133 228 -17 b 754 258 594 -17 732 89 l 614 267 b 435 107 599 167 524 107 b 232 368 307 107 232 206 b 435 629 232 532 307 629 b 610 481 519 629 594 574 z m 361 840 l 507 840 l 507 986 l 361 986 z "},"d":{"ha":833,"x_min":0,"x_max":0,"o":"m 725 986 l 593 986 l 593 640 b 372 753 551 714 478 753 b 65 368 164 753 65 574 b 372 -17 65 163 164 -17 b 600 103 483 -17 558 28 l 604 0 l 725 0 z m 204 368 b 404 635 204 508 261 635 b 604 368 547 635 604 507 b 404 107 604 235 547 107 b 204 368 261 107 204 233 z "},"ð":{"ha":833,"x_min":0,"x_max":0,"o":"m 419 658 b 54 346 214 676 72 556 b 368 -17 36 149 167 0 b 604 65 451 -25 529 1 b 651 843 751 196 829 594 l 753 881 l 719 971 l 583 919 b 274 1046 508 985 407 1032 l 240 922 b 436 864 315 917 381 896 l 299 813 l 332 722 l 522 794 b 622 522 585 725 619 632 b 419 658 583 601 513 649 z m 193 336 b 410 533 203 463 293 544 b 604 368 507 525 588 468 b 369 106 592 204 496 94 b 193 336 254 117 181 204 z "},"ď":{"ha":833,"x_min":0,"x_max":0,"o":"m 726 986 l 594 986 l 594 640 b 374 753 553 714 479 753 b 67 368 165 753 67 574 b 374 -17 67 163 165 -17 b 601 103 485 -17 560 28 l 606 0 l 726 0 z m 206 368 b 406 635 206 508 263 635 b 606 368 549 635 606 507 b 406 107 606 235 549 107 b 206 368 263 107 206 233 z m 763 846 l 864 846 l 990 1026 l 850 1026 z "},"đ":{"ha":833,"x_min":0,"x_max":0,"o":"m 726 986 l 594 986 l 594 915 l 446 915 l 446 807 l 594 807 l 594 640 b 374 753 553 714 479 753 b 67 368 165 753 67 574 b 374 -17 67 163 165 -17 b 601 103 485 -17 560 28 l 606 0 l 726 0 l 726 807 l 822 807 l 822 915 l 726 915 z m 206 368 b 406 635 206 508 263 635 b 606 368 549 635 606 507 b 406 107 606 235 549 107 b 206 368 263 107 206 233 z "},"e":{"ha":833,"x_min":0,"x_max":0,"o":"m 88 368 b 428 -17 88 133 222 -17 b 743 213 574 -17 700 71 l 601 224 b 428 107 569 150 503 107 b 228 329 310 107 239 189 l 754 329 l 753 382 b 428 753 742 646 593 753 b 88 368 222 753 88 603 z m 231 438 b 428 629 250 558 319 629 b 610 438 513 629 589 581 z "},"é":{"ha":833,"x_min":0,"x_max":0,"o":"m 88 368 b 428 -17 88 133 222 -17 b 743 213 574 -17 700 71 l 601 224 b 428 107 569 150 503 107 b 228 329 310 107 239 189 l 754 329 l 753 382 b 428 753 742 646 593 753 b 88 368 222 753 88 603 z m 231 438 b 428 629 250 558 319 629 b 610 438 513 629 589 581 z m 376 843 l 478 843 l 604 1024 l 464 1024 z "},"ě":{"ha":833,"x_min":0,"x_max":0,"o":"m 88 368 b 428 -17 88 133 222 -17 b 743 213 574 -17 700 71 l 601 224 b 428 107 569 150 503 107 b 228 329 310 107 239 189 l 754 329 l 753 382 b 428 753 742 646 593 753 b 88 368 222 753 88 603 z m 228 1011 l 347 844 l 510 844 l 631 1011 l 503 1011 l 429 907 l 354 1011 z m 231 438 b 428 629 250 558 319 629 b 610 438 513 629 589 581 z "},"ê":{"ha":833,"x_min":0,"x_max":0,"o":"m 88 368 b 428 -17 88 133 222 -17 b 743 213 574 -17 700 71 l 601 224 b 428 107 569 150 503 107 b 228 329 310 107 239 189 l 754 329 l 753 382 b 428 753 742 646 593 753 b 88 368 222 753 88 603 z m 226 843 l 353 843 l 428 947 l 501 843 l 629 843 l 508 1010 l 346 1010 z m 231 438 b 428 629 250 558 319 629 b 610 438 513 629 589 581 z "},"ë":{"ha":833,"x_min":0,"x_max":0,"o":"m 88 368 b 428 -17 88 133 222 -17 b 743 213 574 -17 700 71 l 601 224 b 428 107 569 150 503 107 b 228 329 310 107 239 189 l 754 329 l 753 382 b 428 753 742 646 593 753 b 88 368 222 753 88 603 z m 231 438 b 428 629 250 558 319 629 b 610 438 513 629 589 581 z m 249 838 l 394 838 l 394 983 l 249 983 z m 461 838 l 607 838 l 607 983 l 461 983 z "},"ė":{"ha":833,"x_min":0,"x_max":0,"o":"m 88 368 b 428 -17 88 133 222 -17 b 743 213 574 -17 700 71 l 601 224 b 428 107 569 150 503 107 b 228 329 310 107 239 189 l 754 329 l 753 382 b 428 753 742 646 593 753 b 88 368 222 753 88 603 z m 231 438 b 428 629 250 558 319 629 b 610 438 513 629 589 581 z m 354 838 l 500 838 l 500 983 l 354 983 z "},"è":{"ha":833,"x_min":0,"x_max":0,"o":"m 88 368 b 428 -17 88 133 222 -17 b 743 213 574 -17 700 71 l 601 224 b 428 107 569 150 503 107 b 228 329 310 107 239 189 l 754 329 l 753 382 b 428 753 742 646 593 753 b 88 368 222 753 88 603 z m 228 1024 l 374 829 l 483 829 l 376 1024 z m 231 438 b 428 629 250 558 319 629 b 610 438 513 629 589 581 z "},"ē":{"ha":833,"x_min":0,"x_max":0,"o":"m 88 368 b 428 -17 88 133 222 -17 b 743 213 574 -17 700 71 l 601 224 b 428 107 569 150 503 107 b 228 329 310 107 239 189 l 754 329 l 753 382 b 428 753 742 646 593 753 b 88 368 222 753 88 603 z m 231 438 b 428 629 250 558 319 629 b 610 438 513 629 589 581 z m 247 863 l 610 863 l 610 961 l 247 961 z "},"ę":{"ha":833,"x_min":0,"x_max":0,"o":"m 88 368 b 428 -17 88 133 222 -17 l 433 -17 l 399 -54 b 346 -181 361 -93 346 -136 b 472 -300 346 -249 403 -299 b 583 -261 510 -301 549 -290 l 583 -164 b 496 -194 553 -178 521 -194 b 450 -147 469 -194 450 -174 b 493 -58 450 -119 474 -86 l 535 0 b 743 213 633 32 711 107 l 601 224 b 428 107 569 150 503 107 b 228 329 310 107 239 189 l 754 329 l 753 382 b 428 753 742 646 593 753 b 88 368 222 753 88 603 z m 231 438 b 428 629 250 558 319 629 b 610 438 513 629 589 581 z "},"ẽ":{"ha":833,"x_min":0,"x_max":0,"o":"m 88 368 b 428 -17 88 133 222 -17 b 743 213 574 -17 700 71 l 601 224 b 428 107 569 150 503 107 b 228 329 310 107 239 189 l 754 329 l 753 382 b 428 753 742 646 593 753 b 88 368 222 753 88 603 z m 193 842 l 288 842 b 342 932 288 906 306 932 b 413 888 374 932 389 911 b 522 840 436 863 465 840 b 663 1026 607 840 663 914 l 568 1026 b 515 935 568 964 551 935 b 435 989 479 935 463 963 b 333 1028 411 1011 383 1028 b 193 842 249 1028 194 956 z m 231 438 b 428 629 250 558 319 629 b 610 438 513 629 589 581 z "},"ə":{"ha":833,"x_min":0,"x_max":0,"o":"m 746 368 b 406 753 746 603 611 753 b 90 524 260 753 133 665 l 232 513 b 406 629 264 586 331 629 b 606 407 524 629 594 547 l 79 407 l 81 354 b 406 -17 92 90 240 -17 b 746 368 611 -17 746 133 z m 224 299 l 603 299 b 406 107 583 178 514 107 b 224 299 321 107 244 156 z "},"f":{"ha":833,"x_min":0,"x_max":0,"o":"m 289 771 l 289 690 l 119 690 l 119 572 l 289 572 l 289 0 l 421 0 l 421 572 l 674 572 l 674 690 l 421 690 l 421 774 b 500 869 421 832 454 869 l 683 869 l 683 986 l 504 986 b 289 771 356 986 289 904 z "},"g":{"ha":833,"x_min":0,"x_max":0,"o":"m 407 39 b 608 161 483 39 565 81 l 608 50 b 414 -106 608 -51 535 -106 b 242 -3 329 -106 271 -68 l 103 -11 b 414 -225 138 -140 254 -225 b 740 79 611 -225 740 -121 l 740 736 l 614 736 l 614 622 b 407 753 581 701 504 753 b 82 393 213 753 82 603 b 407 39 82 188 210 39 z m 221 393 b 418 631 221 532 294 631 b 611 393 540 631 614 532 b 418 157 610 254 536 157 b 221 393 294 157 221 254 z "},"ğ":{"ha":833,"x_min":0,"x_max":0,"o":"m 407 39 b 608 161 483 39 565 81 l 608 50 b 414 -106 608 -51 535 -106 b 242 -3 329 -106 271 -68 l 103 -11 b 414 -225 138 -140 254 -225 b 740 79 611 -225 740 -121 l 740 736 l 614 736 l 614 622 b 407 753 581 701 504 753 b 82 393 213 753 82 603 b 407 39 82 188 210 39 z m 215 1026 b 417 846 217 925 304 846 b 618 1026 531 846 618 925 l 519 1026 b 417 936 519 976 475 936 b 314 1026 360 936 315 976 z m 221 393 b 418 631 221 532 294 631 b 611 393 540 631 614 532 b 418 157 610 254 536 157 b 221 393 294 157 221 254 z "},"ĝ":{"ha":833,"x_min":0,"x_max":0,"o":"m 407 39 b 608 161 483 39 565 81 l 608 50 b 414 -106 608 -51 535 -106 b 242 -3 329 -106 271 -68 l 103 -11 b 414 -225 138 -140 254 -225 b 740 79 611 -225 740 -121 l 740 736 l 614 736 l 614 622 b 407 753 581 701 504 753 b 82 393 213 753 82 603 b 407 39 82 188 210 39 z m 215 846 l 342 846 l 417 950 l 490 846 l 618 846 l 497 1013 l 335 1013 z m 221 393 b 418 631 221 532 294 631 b 611 393 540 631 614 532 b 418 157 610 254 536 157 b 221 393 294 157 221 254 z "},"ģ":{"ha":833,"x_min":0,"x_max":0,"o":"m 407 39 b 608 161 483 39 565 81 l 608 50 b 414 -106 608 -51 535 -106 b 242 -3 329 -106 271 -68 l 103 -11 b 414 -225 138 -140 254 -225 b 740 79 611 -225 740 -121 l 740 736 l 614 736 l 614 622 b 407 753 581 701 504 753 b 82 393 213 753 82 603 b 407 39 82 188 210 39 z m 221 393 b 418 631 221 532 294 631 b 611 393 540 631 614 532 b 418 157 610 254 536 157 b 221 393 294 157 221 254 z m 349 850 l 524 850 l 524 1019 l 453 1019 l 525 1243 l 450 1243 l 349 1019 z "},"ġ":{"ha":833,"x_min":0,"x_max":0,"o":"m 407 39 b 608 161 483 39 565 81 l 608 50 b 414 -106 608 -51 535 -106 b 242 -3 329 -106 271 -68 l 103 -11 b 414 -225 138 -140 254 -225 b 740 79 611 -225 740 -121 l 740 736 l 614 736 l 614 622 b 407 753 581 701 504 753 b 82 393 213 753 82 603 b 407 39 82 188 210 39 z m 221 393 b 418 631 221 532 294 631 b 611 393 540 631 614 532 b 418 157 610 254 536 157 b 221 393 294 157 221 254 z m 343 840 l 489 840 l 489 986 l 343 986 z "},"ḡ":{"ha":833,"x_min":0,"x_max":0,"o":"m 407 39 b 608 161 483 39 565 81 l 608 50 b 414 -106 608 -51 535 -106 b 242 -3 329 -106 271 -68 l 103 -11 b 414 -225 138 -140 254 -225 b 740 79 611 -225 740 -121 l 740 736 l 614 736 l 614 622 b 407 753 581 701 504 753 b 82 393 213 753 82 603 b 407 39 82 188 210 39 z m 221 393 b 418 631 221 532 294 631 b 611 393 540 631 614 532 b 418 157 610 254 536 157 b 221 393 294 157 221 254 z m 235 865 l 597 865 l 597 964 l 235 964 z "},"h":{"ha":833,"x_min":0,"x_max":0,"o":"m 138 986 l 138 0 l 269 0 l 269 432 b 449 632 269 563 340 632 b 594 432 553 632 594 563 l 594 0 l 728 0 l 728 474 b 483 753 728 632 647 753 b 269 640 394 753 313 717 l 269 986 z "},"ħ":{"ha":833,"x_min":0,"x_max":0,"o":"m 142 986 l 142 915 l 31 915 l 31 807 l 142 807 l 142 0 l 274 0 l 274 432 b 453 632 274 563 344 632 b 599 432 557 632 599 563 l 599 0 l 732 0 l 732 474 b 488 753 732 632 651 753 b 274 640 399 753 317 717 l 274 807 l 410 807 l 410 915 l 274 915 l 274 986 z "},"ĥ":{"ha":833,"x_min":0,"x_max":0,"o":"m 138 986 l 138 0 l 269 0 l 269 432 b 449 632 269 563 340 632 b 594 432 553 632 594 563 l 594 0 l 728 0 l 728 474 b 483 753 728 632 647 753 b 269 640 394 753 313 717 l 269 986 z m 1 1096 l 128 1096 l 203 1200 l 276 1096 l 404 1096 l 283 1263 l 121 1263 z "},"i":{"ha":833,"x_min":0,"x_max":0,"o":"m 532 736 l 139 736 l 139 619 l 399 619 l 399 117 l 139 117 l 139 0 l 751 0 l 751 117 l 532 117 z m 386 840 l 532 840 l 532 986 l 386 986 z "},"ı":{"ha":833,"x_min":0,"x_max":0,"o":"m 532 736 l 139 736 l 139 619 l 399 619 l 399 117 l 139 117 l 139 0 l 751 0 l 751 117 l 532 117 z "},"í":{"ha":833,"x_min":0,"x_max":0,"o":"m 532 736 l 139 736 l 139 619 l 399 619 l 399 117 l 139 117 l 139 0 l 751 0 l 751 117 l 532 117 z m 408 846 l 510 846 l 636 1026 l 496 1026 z "},"î":{"ha":833,"x_min":0,"x_max":0,"o":"m 532 736 l 139 736 l 139 619 l 399 619 l 399 117 l 139 117 l 139 0 l 751 0 l 751 117 l 532 117 z m 257 846 l 383 846 l 458 950 l 532 846 l 660 846 l 539 1013 l 376 1013 z "},"ï":{"ha":833,"x_min":0,"x_max":0,"o":"m 532 736 l 139 736 l 139 619 l 399 619 l 399 117 l 139 117 l 139 0 l 751 0 l 751 117 l 532 117 z m 279 840 l 425 840 l 425 986 l 279 986 z m 492 840 l 638 840 l 638 986 l 492 986 z "},"ì":{"ha":833,"x_min":0,"x_max":0,"o":"m 532 736 l 139 736 l 139 619 l 399 619 l 399 117 l 139 117 l 139 0 l 751 0 l 751 117 l 532 117 z m 258 1026 l 404 832 l 514 832 l 407 1026 z "},"ī":{"ha":833,"x_min":0,"x_max":0,"o":"m 532 736 l 139 736 l 139 619 l 399 619 l 399 117 l 139 117 l 139 0 l 751 0 l 751 117 l 532 117 z m 278 865 l 640 865 l 640 964 l 278 964 z "},"į":{"ha":833,"x_min":0,"x_max":0,"o":"m 532 736 l 139 736 l 139 619 l 399 619 l 399 117 l 139 117 l 139 0 l 663 0 l 613 -54 b 560 -181 575 -93 560 -136 b 686 -300 560 -249 617 -299 b 797 -261 724 -301 763 -290 l 797 -164 b 710 -194 767 -178 735 -194 b 664 -147 683 -194 664 -174 b 707 -58 664 -119 688 -86 l 749 0 l 751 0 l 751 117 l 532 117 z m 386 840 l 532 840 l 532 986 l 386 986 z "},"ĩ":{"ha":833,"x_min":0,"x_max":0,"o":"m 532 736 l 139 736 l 139 619 l 399 619 l 399 117 l 139 117 l 139 0 l 751 0 l 751 117 l 532 117 z m 224 844 l 318 844 b 372 935 318 908 336 935 b 443 890 404 935 419 914 b 553 843 467 865 496 843 b 693 1029 638 843 693 917 l 599 1029 b 546 938 599 967 582 938 b 465 992 510 938 493 965 b 364 1031 442 1014 414 1031 b 224 844 279 1031 225 958 z "},"j":{"ha":833,"x_min":0,"x_max":0,"o":"m 618 15 l 618 736 l 157 736 l 157 619 l 486 619 l 486 15 b 403 -92 486 -47 453 -92 l 156 -92 l 156 -208 l 419 -208 b 618 15 550 -208 618 -118 z m 474 840 l 619 840 l 619 986 l 474 986 z "},"ȷ":{"ha":833,"x_min":0,"x_max":0,"o":"m 618 15 l 618 736 l 157 736 l 157 619 l 486 619 l 486 15 b 403 -92 486 -47 453 -92 l 156 -92 l 156 -208 l 419 -208 b 618 15 550 -208 618 -118 z "},"ĵ":{"ha":833,"x_min":0,"x_max":0,"o":"m 618 15 l 618 736 l 157 736 l 157 619 l 486 619 l 486 15 b 403 -92 486 -47 453 -92 l 156 -92 l 156 -208 l 419 -208 b 618 15 550 -208 618 -118 z m 346 846 l 472 846 l 547 950 l 621 846 l 749 846 l 628 1013 l 465 1013 z "},"k":{"ha":833,"x_min":0,"x_max":0,"o":"m 118 986 l 118 0 l 250 0 l 250 172 l 385 329 l 611 0 l 774 0 l 472 424 l 760 736 l 581 736 l 250 364 l 250 986 z "},"ķ":{"ha":833,"x_min":0,"x_max":0,"o":"m 118 986 l 118 0 l 250 0 l 250 172 l 385 329 l 611 0 l 774 0 l 472 424 l 760 736 l 581 736 l 250 364 l 250 986 z m 272 -264 l 374 -264 l 500 -83 l 360 -83 z "},"l":{"ha":833,"x_min":0,"x_max":0,"o":"m 136 117 l 136 0 l 751 0 l 751 117 l 524 117 l 524 786 b 313 986 524 915 449 986 l 138 986 l 138 869 l 313 869 b 392 786 367 869 392 843 l 392 117 z "},"ĺ":{"ha":833,"x_min":0,"x_max":0,"o":"m 136 117 l 136 0 l 751 0 l 751 117 l 524 117 l 524 786 b 313 986 524 915 449 986 l 138 986 l 138 869 l 313 869 b 392 786 367 869 392 843 l 392 117 z m 406 1096 l 507 1096 l 633 1276 l 493 1276 z "},"ľ":{"ha":833,"x_min":0,"x_max":0,"o":"m 136 117 l 136 0 l 751 0 l 751 117 l 524 117 l 524 786 b 313 986 524 915 449 986 l 138 986 l 138 869 l 313 869 b 392 786 367 869 392 843 l 392 117 z m 554 831 l 664 831 l 810 1025 l 661 1025 z "},"ļ":{"ha":833,"x_min":0,"x_max":0,"o":"m 136 117 l 136 0 l 751 0 l 751 117 l 524 117 l 524 786 b 313 986 524 915 449 986 l 138 986 l 138 869 l 313 869 b 392 786 367 869 392 843 l 392 117 z m 304 -264 l 406 -264 l 532 -83 l 392 -83 z "},"ł":{"ha":833,"x_min":0,"x_max":0,"o":"m 158 117 l 158 0 l 774 0 l 774 117 l 546 117 l 546 507 l 679 564 l 636 664 l 546 625 l 546 786 b 335 986 546 915 471 986 l 160 986 l 160 869 l 335 869 b 414 786 389 869 414 843 l 414 569 l 297 519 l 340 421 l 414 451 l 414 117 z "},"m":{"ha":833,"x_min":0,"x_max":0,"o":"m 60 736 l 60 0 l 192 0 l 192 447 b 275 640 192 572 222 640 b 354 447 333 640 354 588 l 354 0 l 486 0 l 486 447 b 578 640 486 572 519 640 b 650 447 631 640 650 588 l 650 0 l 781 0 l 781 447 b 618 753 781 658 731 753 b 460 618 543 753 485 701 b 332 753 436 711 397 753 b 182 636 260 753 210 711 l 178 736 z "},"n":{"ha":833,"x_min":0,"x_max":0,"o":"m 131 736 l 131 0 l 264 0 l 264 440 b 443 640 264 571 333 640 b 589 440 546 640 589 571 l 589 0 l 721 0 l 721 474 b 476 753 721 632 642 753 b 256 611 376 753 294 707 l 251 736 z "},"ń":{"ha":833,"x_min":0,"x_max":0,"o":"m 131 736 l 131 0 l 264 0 l 264 440 b 443 640 264 571 333 640 b 589 440 546 640 589 571 l 589 0 l 721 0 l 721 474 b 476 753 721 632 642 753 b 256 611 376 753 294 707 l 251 736 z m 375 846 l 476 846 l 603 1026 l 463 1026 z "},"ň":{"ha":833,"x_min":0,"x_max":0,"o":"m 131 736 l 131 0 l 264 0 l 264 440 b 443 640 264 571 333 640 b 589 440 546 640 589 571 l 589 0 l 721 0 l 721 474 b 476 753 721 632 642 753 b 256 611 376 753 294 707 l 251 736 z m 225 1013 l 344 846 l 507 846 l 628 1013 l 500 1013 l 426 908 l 351 1013 z "},"ņ":{"ha":833,"x_min":0,"x_max":0,"o":"m 131 736 l 131 0 l 264 0 l 264 440 b 443 640 264 571 333 640 b 589 440 546 640 589 571 l 589 0 l 721 0 l 721 474 b 476 753 721 632 642 753 b 256 611 376 753 294 707 l 251 736 z m 272 -264 l 374 -264 l 500 -83 l 360 -83 z "},"ñ":{"ha":833,"x_min":0,"x_max":0,"o":"m 131 736 l 131 0 l 264 0 l 264 440 b 443 640 264 571 333 640 b 589 440 546 640 589 571 l 589 0 l 721 0 l 721 474 b 476 753 721 632 642 753 b 256 611 376 753 294 707 l 251 736 z m 190 844 l 285 844 b 339 935 285 908 303 935 b 410 890 371 935 386 914 b 519 843 433 865 463 843 b 660 1029 604 843 660 917 l 565 1029 b 513 938 565 967 549 938 b 432 992 476 938 460 965 b 331 1031 408 1014 381 1031 b 190 844 246 1031 192 958 z "},"o":{"ha":833,"x_min":0,"x_max":0,"o":"m 417 -17 b 757 368 621 -17 757 135 b 417 753 757 601 621 753 b 76 368 213 753 76 601 b 417 -17 76 135 213 -17 z m 215 368 b 417 629 215 532 289 629 b 618 368 544 629 618 532 b 417 107 618 206 544 107 b 215 368 289 107 215 206 z "},"ó":{"ha":833,"x_min":0,"x_max":0,"o":"m 417 -17 b 757 368 621 -17 757 135 b 417 753 757 601 621 753 b 76 368 213 753 76 601 b 417 -17 76 135 213 -17 z m 215 368 b 417 629 215 532 289 629 b 618 368 544 629 618 532 b 417 107 618 206 544 107 b 215 368 289 107 215 206 z m 365 846 l 467 846 l 593 1026 l 453 1026 z "},"ô":{"ha":833,"x_min":0,"x_max":0,"o":"m 417 -17 b 757 368 621 -17 757 135 b 417 753 757 601 621 753 b 76 368 213 753 76 601 b 417 -17 76 135 213 -17 z m 215 368 b 417 629 215 532 289 629 b 618 368 544 629 618 532 b 417 107 618 206 544 107 b 215 368 289 107 215 206 z m 215 846 l 342 846 l 417 950 l 490 846 l 618 846 l 497 1013 l 335 1013 z "},"ö":{"ha":833,"x_min":0,"x_max":0,"o":"m 417 -17 b 757 368 621 -17 757 135 b 417 753 757 601 621 753 b 76 368 213 753 76 601 b 417 -17 76 135 213 -17 z m 215 368 b 417 629 215 532 289 629 b 618 368 544 629 618 532 b 417 107 618 206 544 107 b 215 368 289 107 215 206 z m 238 840 l 383 840 l 383 986 l 238 986 z m 449 840 l 594 840 l 594 986 l 449 986 z "},"ò":{"ha":833,"x_min":0,"x_max":0,"o":"m 417 -17 b 757 368 621 -17 757 135 b 417 753 757 601 621 753 b 76 368 213 753 76 601 b 417 -17 76 135 213 -17 z m 215 368 b 417 629 215 532 289 629 b 618 368 544 629 618 532 b 417 107 618 206 544 107 b 215 368 289 107 215 206 z m 215 1026 l 361 832 l 471 832 l 364 1026 z "},"ő":{"ha":833,"x_min":0,"x_max":0,"o":"m 417 -17 b 757 368 621 -17 757 135 b 417 753 757 601 621 753 b 76 368 213 753 76 601 b 417 -17 76 135 213 -17 z m 215 368 b 417 629 215 532 289 629 b 618 368 544 629 618 532 b 417 107 618 206 544 107 b 215 368 289 107 215 206 z m 258 846 l 360 846 l 486 1026 l 346 1026 z m 439 846 l 540 846 l 667 1026 l 526 1026 z "},"ō":{"ha":833,"x_min":0,"x_max":0,"o":"m 417 -17 b 757 368 621 -17 757 135 b 417 753 757 601 621 753 b 76 368 213 753 76 601 b 417 -17 76 135 213 -17 z m 215 368 b 417 629 215 532 289 629 b 618 368 544 629 618 532 b 417 107 618 206 544 107 b 215 368 289 107 215 206 z m 235 865 l 597 865 l 597 964 l 235 964 z "},"ø":{"ha":833,"x_min":0,"x_max":0,"o":"m 417 -17 b 757 368 621 -17 757 135 b 685 622 757 471 731 557 l 793 753 l 663 753 l 613 693 b 417 753 560 732 493 753 b 76 368 213 753 76 601 b 142 125 76 271 100 189 l 25 -17 l 154 -17 l 210 50 b 417 -17 265 7 336 -17 z m 215 368 b 417 629 215 532 289 629 b 531 594 463 629 500 617 l 236 238 b 215 368 222 274 215 318 z m 293 150 l 593 511 b 618 368 610 472 618 424 b 417 107 618 206 544 107 b 293 150 367 107 325 122 z "},"õ":{"ha":833,"x_min":0,"x_max":0,"o":"m 417 -17 b 757 368 621 -17 757 135 b 417 753 757 601 621 753 b 76 368 213 753 76 601 b 417 -17 76 135 213 -17 z m 182 844 l 276 844 b 331 935 276 908 294 935 b 401 890 363 935 378 914 b 511 843 425 865 454 843 b 651 1029 596 843 651 917 l 557 1029 b 504 938 557 967 540 938 b 424 992 468 938 451 965 b 322 1031 400 1014 372 1031 b 182 844 238 1031 183 958 z m 215 368 b 417 629 215 532 289 629 b 618 368 544 629 618 532 b 417 107 618 206 544 107 b 215 368 289 107 215 206 z "},"œ":{"ha":833,"x_min":0,"x_max":0,"o":"m 244 -17 b 414 85 315 -17 374 19 b 592 -17 454 18 514 -17 b 813 213 715 -17 779 50 l 685 224 b 592 107 668 139 642 107 b 479 329 526 107 485 186 l 821 329 l 819 382 b 592 753 813 631 733 753 b 414 651 514 753 454 718 b 244 753 374 717 315 753 b 14 368 103 753 14 604 b 244 -17 14 132 103 -17 z m 140 368 b 244 629 140 531 181 629 b 351 368 311 629 351 531 b 244 107 351 206 311 107 b 140 368 181 107 140 206 z m 481 438 b 585 629 490 567 525 629 b 690 438 646 629 681 567 z "},"p":{"ha":833,"x_min":0,"x_max":0,"o":"m 108 -208 l 240 -208 l 240 100 b 456 -17 282 24 356 -17 b 768 368 669 -17 768 163 b 456 753 768 574 669 753 b 233 628 350 753 274 708 l 229 736 l 108 736 z m 226 368 b 426 629 226 501 286 629 b 626 368 568 629 626 503 b 426 107 626 233 568 107 b 226 368 286 107 226 235 z "},"þ":{"ha":833,"x_min":0,"x_max":0,"o":"m 0 986 l 0 -208 l 147 -208 l 147 79 b 358 -17 189 18 260 -17 b 675 368 574 -17 675 163 b 358 753 675 574 574 753 b 147 654 258 753 188 718 l 147 986 z m 133 368 b 329 626 133 503 190 626 b 525 368 469 626 525 503 b 329 114 525 238 469 114 b 133 368 190 114 133 239 z "},"q":{"ha":833,"x_min":0,"x_max":0,"o":"m 725 -208 l 725 736 l 604 736 l 600 628 b 378 753 560 708 483 753 b 65 368 164 753 65 574 b 378 -17 65 163 164 -17 b 593 100 478 -17 551 24 l 593 -208 z m 207 368 b 407 629 207 503 265 629 b 607 368 547 629 607 501 b 407 107 607 235 547 107 b 207 368 265 107 207 233 z "},"r":{"ha":833,"x_min":0,"x_max":0,"o":"m 406 736 l 119 736 l 119 619 l 308 619 l 308 117 l 119 117 l 119 0 l 676 0 l 676 117 l 440 117 l 440 436 b 601 619 440 558 490 619 l 747 619 l 747 736 l 597 736 b 415 600 500 736 440 693 z "},"ŕ":{"ha":833,"x_min":0,"x_max":0,"o":"m 406 736 l 119 736 l 119 619 l 308 619 l 308 117 l 119 117 l 119 0 l 676 0 l 676 117 l 440 117 l 440 436 b 601 619 440 558 490 619 l 747 619 l 747 736 l 597 736 b 415 600 500 736 440 693 z m 421 846 l 522 846 l 649 1026 l 508 1026 z "},"ř":{"ha":833,"x_min":0,"x_max":0,"o":"m 406 736 l 119 736 l 119 619 l 308 619 l 308 117 l 119 117 l 119 0 l 676 0 l 676 117 l 440 117 l 440 436 b 601 619 440 558 490 619 l 747 619 l 747 736 l 597 736 b 415 600 500 736 440 693 z m 272 1013 l 392 846 l 554 846 l 675 1013 l 547 1013 l 474 908 l 399 1013 z "},"ŗ":{"ha":833,"x_min":0,"x_max":0,"o":"m 406 736 l 119 736 l 119 619 l 308 619 l 308 117 l 119 117 l 119 0 l 676 0 l 676 117 l 440 117 l 440 436 b 601 619 440 558 490 619 l 747 619 l 747 736 l 597 736 b 415 600 500 736 440 693 z m 222 -264 l 324 -264 l 450 -83 l 310 -83 z "},"s":{"ha":833,"x_min":0,"x_max":0,"o":"m 583 507 l 718 515 b 419 753 694 660 575 753 b 131 519 265 753 131 668 b 408 301 131 386 271 335 b 583 197 489 283 583 271 b 432 107 583 125 507 107 b 247 242 336 107 261 158 l 110 233 b 432 -17 121 81 260 -17 b 722 190 583 -17 722 46 b 442 413 722 328 582 379 b 269 525 360 433 271 450 b 407 629 269 594 335 629 b 583 507 494 629 568 585 z "},"ś":{"ha":833,"x_min":0,"x_max":0,"o":"m 583 507 l 718 515 b 419 753 694 660 575 753 b 131 519 265 753 131 668 b 408 301 131 386 271 335 b 583 197 489 283 583 271 b 432 107 583 125 507 107 b 247 242 336 107 261 158 l 110 233 b 432 -17 121 81 260 -17 b 722 190 583 -17 722 46 b 442 413 722 328 582 379 b 269 525 360 433 271 450 b 407 629 269 594 335 629 b 583 507 494 629 568 585 z m 368 846 l 469 846 l 596 1026 l 456 1026 z "},"ꞌ":{"ha":833,"x_min":0,"x_max":0,"o":"m 350 986 l 350 794 l 369 518 l 464 518 l 483 794 l 483 986 z "},"š":{"ha":833,"x_min":0,"x_max":0,"o":"m 583 507 l 718 515 b 419 753 694 660 575 753 b 131 519 265 753 131 668 b 408 301 131 386 271 335 b 583 197 489 283 583 271 b 432 107 583 125 507 107 b 247 242 336 107 261 158 l 110 233 b 432 -17 121 81 260 -17 b 722 190 583 -17 722 46 b 442 413 722 328 582 379 b 269 525 360 433 271 450 b 407 629 269 594 335 629 b 583 507 494 629 568 585 z m 219 1013 l 339 846 l 501 846 l 622 1013 l 494 1013 l 421 908 l 346 1013 z "},"ş":{"ha":833,"x_min":0,"x_max":0,"o":"m 583 507 l 718 515 b 419 753 694 660 575 753 b 131 519 265 753 131 668 b 408 301 131 386 271 335 b 583 197 489 283 583 271 b 432 107 583 125 507 107 b 247 242 336 107 261 158 l 110 233 b 371 -12 119 99 228 8 l 322 -65 l 364 -119 b 465 -169 419 -106 465 -125 b 404 -226 465 -203 442 -226 b 306 -154 357 -226 325 -179 l 240 -215 b 411 -311 296 -279 343 -311 b 551 -178 489 -311 551 -253 b 417 -50 551 -103 494 -50 l 447 -17 b 722 190 593 -12 722 51 b 442 413 722 328 582 379 b 269 525 360 433 271 450 b 407 629 269 594 335 629 b 583 507 494 629 568 585 z "},"ŝ":{"ha":833,"x_min":0,"x_max":0,"o":"m 583 507 l 718 515 b 419 753 694 660 575 753 b 131 519 265 753 131 668 b 408 301 131 386 271 335 b 583 197 489 283 583 271 b 432 107 583 125 507 107 b 247 242 336 107 261 158 l 110 233 b 432 -17 121 81 260 -17 b 722 190 583 -17 722 46 b 442 413 722 328 582 379 b 269 525 360 433 271 450 b 407 629 269 594 335 629 b 583 507 494 629 568 585 z m 218 846 l 344 846 l 419 950 l 493 846 l 621 846 l 500 1013 l 338 1013 z "},"ș":{"ha":833,"x_min":0,"x_max":0,"o":"m 583 507 l 718 515 b 419 753 694 660 575 753 b 131 519 265 753 131 668 b 408 301 131 386 271 335 b 583 197 489 283 583 271 b 432 107 583 125 507 107 b 247 242 336 107 261 158 l 110 233 b 432 -17 121 81 260 -17 b 722 190 583 -17 722 46 b 442 413 722 328 582 379 b 269 525 360 433 271 450 b 407 629 269 594 335 629 b 583 507 494 629 568 585 z m 267 -264 l 368 -264 l 494 -83 l 354 -83 z "},"ß":{"ha":833,"x_min":0,"x_max":0,"o":"m 408 125 b 622 288 521 125 622 178 b 396 458 622 407 519 461 l 336 457 l 336 583 l 396 582 b 564 735 494 579 564 643 b 403 878 564 818 497 878 b 232 685 301 878 232 813 l 232 0 l 99 0 l 99 682 b 404 1003 99 886 226 1003 b 701 746 578 1003 701 900 b 553 532 701 647 649 564 b 763 275 676 500 763 407 b 411 0 763 93 600 0 l 322 0 l 322 125 z "},"t":{"ha":833,"x_min":0,"x_max":0,"o":"m 293 931 l 293 736 l 96 736 l 96 619 l 293 619 l 293 211 b 514 0 293 81 360 0 l 700 0 l 700 117 l 521 117 b 426 215 460 117 426 154 l 426 619 l 703 619 l 703 736 l 426 736 l 426 931 z "},"ť":{"ha":833,"x_min":0,"x_max":0,"o":"m 293 931 l 293 736 l 96 736 l 96 619 l 293 619 l 293 211 b 514 0 293 81 360 0 l 700 0 l 700 117 l 521 117 b 426 215 460 117 426 154 l 426 619 l 703 619 l 703 736 l 426 736 l 426 931 z m 489 831 l 599 831 l 744 1025 l 596 1025 z "},"ţ":{"ha":833,"x_min":0,"x_max":0,"o":"m 293 931 l 293 736 l 96 736 l 96 619 l 293 619 l 293 211 b 417 14 293 113 331 42 l 344 -65 l 386 -119 b 488 -169 442 -106 488 -125 b 426 -226 488 -203 464 -226 b 328 -154 379 -226 347 -179 l 263 -215 b 433 -311 318 -279 365 -311 b 574 -178 511 -311 574 -253 b 439 -50 574 -103 517 -50 l 486 1 b 514 0 494 0 504 0 l 700 0 l 700 117 l 521 117 b 426 215 460 117 426 154 l 426 619 l 703 619 l 703 736 l 426 736 l 426 931 z "},"ț":{"ha":833,"x_min":0,"x_max":0,"o":"m 293 931 l 293 736 l 96 736 l 96 619 l 293 619 l 293 211 b 514 0 293 81 360 0 l 700 0 l 700 117 l 521 117 b 426 215 460 117 426 154 l 426 619 l 703 619 l 703 736 l 426 736 l 426 931 z m 288 -264 l 389 -264 l 515 -83 l 375 -83 z "},"u":{"ha":833,"x_min":0,"x_max":0,"o":"m 704 0 l 704 736 l 572 736 l 572 297 b 396 96 572 165 501 96 b 254 297 296 96 254 165 l 254 736 l 121 736 l 121 263 b 363 -17 121 104 201 -17 b 576 119 456 -17 538 26 l 578 0 z "},"ú":{"ha":833,"x_min":0,"x_max":0,"o":"m 704 0 l 704 736 l 572 736 l 572 297 b 396 96 572 165 501 96 b 254 297 296 96 254 165 l 254 736 l 121 736 l 121 263 b 363 -17 121 104 201 -17 b 576 119 456 -17 538 26 l 578 0 z m 357 846 l 458 846 l 585 1026 l 444 1026 z "},"ŭ":{"ha":833,"x_min":0,"x_max":0,"o":"m 704 0 l 704 736 l 572 736 l 572 297 b 396 96 572 165 501 96 b 254 297 296 96 254 165 l 254 736 l 121 736 l 121 263 b 363 -17 121 104 201 -17 b 576 119 456 -17 538 26 l 578 0 z m 206 1026 b 407 846 207 925 294 846 b 608 1026 521 846 608 925 l 510 1026 b 407 936 510 976 465 936 b 304 1026 350 936 306 976 z "},"û":{"ha":833,"x_min":0,"x_max":0,"o":"m 704 0 l 704 736 l 572 736 l 572 297 b 396 96 572 165 501 96 b 254 297 296 96 254 165 l 254 736 l 121 736 l 121 263 b 363 -17 121 104 201 -17 b 576 119 456 -17 538 26 l 578 0 z m 207 846 l 333 846 l 408 950 l 482 846 l 610 846 l 489 1013 l 326 1013 z "},"ü":{"ha":833,"x_min":0,"x_max":0,"o":"m 704 0 l 704 736 l 572 736 l 572 297 b 396 96 572 165 501 96 b 254 297 296 96 254 165 l 254 736 l 121 736 l 121 263 b 363 -17 121 104 201 -17 b 576 119 456 -17 538 26 l 578 0 z m 228 840 l 374 840 l 374 986 l 228 986 z m 440 840 l 586 840 l 586 986 l 440 986 z "},"ù":{"ha":833,"x_min":0,"x_max":0,"o":"m 704 0 l 704 736 l 572 736 l 572 297 b 396 96 572 165 501 96 b 254 297 296 96 254 165 l 254 736 l 121 736 l 121 263 b 363 -17 121 104 201 -17 b 576 119 456 -17 538 26 l 578 0 z m 207 1026 l 353 832 l 463 832 l 356 1026 z "},"ű":{"ha":833,"x_min":0,"x_max":0,"o":"m 704 0 l 704 736 l 572 736 l 572 297 b 396 96 572 165 501 96 b 254 297 296 96 254 165 l 254 736 l 121 736 l 121 263 b 363 -17 121 104 201 -17 b 576 119 456 -17 538 26 l 578 0 z m 250 846 l 351 846 l 478 1026 l 338 1026 z m 431 846 l 532 846 l 658 1026 l 518 1026 z "},"ū":{"ha":833,"x_min":0,"x_max":0,"o":"m 704 0 l 704 736 l 572 736 l 572 297 b 396 96 572 165 501 96 b 254 297 296 96 254 165 l 254 736 l 121 736 l 121 263 b 363 -17 121 104 201 -17 b 576 119 456 -17 538 26 l 578 0 z m 226 865 l 589 865 l 589 964 l 226 964 z "},"ų":{"ha":833,"x_min":0,"x_max":0,"o":"m 704 0 l 704 736 l 572 736 l 572 297 b 396 96 572 165 501 96 b 254 297 296 96 254 165 l 254 736 l 121 736 l 121 263 b 363 -17 121 104 201 -17 b 576 119 456 -17 538 26 l 578 0 l 618 0 l 568 -54 b 515 -181 531 -93 515 -136 b 642 -300 515 -249 572 -299 b 753 -261 679 -301 718 -290 l 753 -164 b 665 -194 722 -178 690 -194 b 619 -147 639 -194 619 -174 b 663 -58 619 -119 643 -86 z "},"ů":{"ha":833,"x_min":0,"x_max":0,"o":"m 704 0 l 704 736 l 572 736 l 572 297 b 396 96 572 165 501 96 b 254 297 296 96 254 165 l 254 736 l 121 736 l 121 263 b 363 -17 121 104 201 -17 b 576 119 456 -17 538 26 l 578 0 z m 263 954 b 407 811 263 875 326 811 b 551 954 488 811 551 875 b 407 1101 551 1036 488 1101 b 263 954 326 1101 263 1036 z m 350 956 b 407 1013 350 988 375 1013 b 464 956 439 1013 464 988 b 407 900 464 925 439 900 b 350 956 375 900 350 925 z "},"ũ":{"ha":833,"x_min":0,"x_max":0,"o":"m 704 0 l 704 736 l 572 736 l 572 297 b 396 96 572 165 501 96 b 254 297 296 96 254 165 l 254 736 l 121 736 l 121 263 b 363 -17 121 104 201 -17 b 576 119 456 -17 538 26 l 578 0 z m 174 844 l 268 844 b 322 935 268 908 286 935 b 393 890 354 935 369 914 b 503 843 417 865 446 843 b 643 1029 588 843 643 917 l 549 1029 b 496 938 549 967 532 938 b 415 992 460 938 443 965 b 314 1031 392 1014 364 1031 b 174 844 229 1031 175 958 z "},"v":{"ha":833,"x_min":0,"x_max":0,"o":"m 765 736 l 624 736 l 417 142 l 210 736 l 68 736 l 336 0 l 499 0 z "},"w":{"ha":833,"x_min":0,"x_max":0,"o":"m 482 639 l 351 639 l 253 189 l 160 736 l 22 736 l 171 0 l 321 0 l 417 433 l 513 0 l 663 0 l 811 736 l 674 736 l 581 189 z "},"ẃ":{"ha":833,"x_min":0,"x_max":0,"o":"m 482 639 l 351 639 l 253 189 l 160 736 l 22 736 l 171 0 l 321 0 l 417 433 l 513 0 l 663 0 l 811 736 l 674 736 l 581 189 z m 365 846 l 467 846 l 593 1026 l 453 1026 z "},"ŵ":{"ha":833,"x_min":0,"x_max":0,"o":"m 482 639 l 351 639 l 253 189 l 160 736 l 22 736 l 171 0 l 321 0 l 417 433 l 513 0 l 663 0 l 811 736 l 674 736 l 581 189 z m 215 846 l 342 846 l 417 950 l 490 846 l 618 846 l 497 1013 l 335 1013 z "},"ẅ":{"ha":833,"x_min":0,"x_max":0,"o":"m 482 639 l 351 639 l 253 189 l 160 736 l 22 736 l 171 0 l 321 0 l 417 433 l 513 0 l 663 0 l 811 736 l 674 736 l 581 189 z m 238 840 l 383 840 l 383 986 l 238 986 z m 449 840 l 594 840 l 594 986 l 449 986 z "},"ẁ":{"ha":833,"x_min":0,"x_max":0,"o":"m 482 639 l 351 639 l 253 189 l 160 736 l 22 736 l 171 0 l 321 0 l 417 433 l 513 0 l 663 0 l 811 736 l 674 736 l 581 189 z m 215 1026 l 361 832 l 471 832 l 364 1026 z "},"x":{"ha":833,"x_min":0,"x_max":0,"o":"m 590 736 l 417 481 l 242 736 l 81 736 l 336 378 l 67 0 l 228 0 l 417 274 l 604 0 l 765 0 l 499 376 l 753 736 z "},"y":{"ha":833,"x_min":0,"x_max":0,"o":"m 72 736 l 339 21 l 381 21 l 356 -43 b 283 -92 343 -78 321 -92 l 203 -92 l 203 -208 l 299 -208 b 474 -86 389 -208 444 -171 l 769 736 l 629 736 l 425 149 l 214 736 z "},"ý":{"ha":833,"x_min":0,"x_max":0,"o":"m 72 736 l 339 21 l 381 21 l 356 -43 b 283 -92 343 -78 321 -92 l 203 -92 l 203 -208 l 299 -208 b 474 -86 389 -208 444 -171 l 769 736 l 629 736 l 425 149 l 214 736 z m 369 846 l 471 846 l 597 1026 l 457 1026 z "},"ŷ":{"ha":833,"x_min":0,"x_max":0,"o":"m 72 736 l 339 21 l 381 21 l 356 -43 b 283 -92 343 -78 321 -92 l 203 -92 l 203 -208 l 299 -208 b 474 -86 389 -208 444 -171 l 769 736 l 629 736 l 425 149 l 214 736 z m 219 846 l 346 846 l 421 950 l 494 846 l 622 846 l 501 1013 l 339 1013 z "},"ÿ":{"ha":833,"x_min":0,"x_max":0,"o":"m 72 736 l 339 21 l 381 21 l 356 -43 b 283 -92 343 -78 321 -92 l 203 -92 l 203 -208 l 299 -208 b 474 -86 389 -208 444 -171 l 769 736 l 629 736 l 425 149 l 214 736 z m 242 840 l 388 840 l 388 986 l 242 986 z m 454 840 l 600 840 l 600 986 l 454 986 z "},"ỳ":{"ha":833,"x_min":0,"x_max":0,"o":"m 72 736 l 339 21 l 381 21 l 356 -43 b 283 -92 343 -78 321 -92 l 203 -92 l 203 -208 l 299 -208 b 474 -86 389 -208 444 -171 l 769 736 l 629 736 l 425 149 l 214 736 z m 219 1026 l 365 832 l 475 832 l 368 1026 z "},"ỹ":{"ha":833,"x_min":0,"x_max":0,"o":"m 72 736 l 339 21 l 381 21 l 356 -43 b 283 -92 343 -78 321 -92 l 203 -92 l 203 -208 l 299 -208 b 474 -86 389 -208 444 -171 l 769 736 l 629 736 l 425 149 l 214 736 z m 186 844 l 281 844 b 335 935 281 908 299 935 b 406 890 367 935 382 914 b 515 843 429 865 458 843 b 656 1029 600 843 656 917 l 561 1029 b 508 938 561 967 544 938 b 428 992 472 938 456 965 b 326 1031 404 1014 376 1031 b 186 844 242 1031 188 958 z "},"z":{"ha":833,"x_min":0,"x_max":0,"o":"m 714 594 l 714 736 l 122 736 l 122 618 l 563 618 l 108 138 l 108 0 l 726 0 l 726 118 l 261 118 z "},"ź":{"ha":833,"x_min":0,"x_max":0,"o":"m 714 594 l 714 736 l 122 736 l 122 618 l 563 618 l 108 138 l 108 0 l 726 0 l 726 118 l 261 118 z m 367 846 l 468 846 l 594 1026 l 454 1026 z "},"ž":{"ha":833,"x_min":0,"x_max":0,"o":"m 714 594 l 714 736 l 122 736 l 122 618 l 563 618 l 108 138 l 108 0 l 726 0 l 726 118 l 261 118 z m 218 1013 l 338 846 l 500 846 l 621 1013 l 493 1013 l 419 908 l 344 1013 z "},"ż":{"ha":833,"x_min":0,"x_max":0,"o":"m 714 594 l 714 736 l 122 736 l 122 618 l 563 618 l 108 138 l 108 0 l 726 0 l 726 118 l 261 118 z m 344 840 l 490 840 l 490 986 l 344 986 z "},"ª":{"ha":833,"x_min":0,"x_max":0,"o":"m 100 518 l 242 508 b 404 629 258 579 319 629 b 569 460 504 629 568 574 l 369 421 b 88 193 201 388 88 346 b 356 -17 88 61 208 -17 b 585 113 471 -17 556 44 b 740 0 599 47 651 0 l 778 0 l 778 117 l 747 117 b 703 163 717 117 703 131 l 703 444 b 406 753 703 649 585 753 b 100 518 250 753 129 660 z m 228 196 b 413 317 226 290 308 297 l 572 344 l 572 313 b 372 100 572 178 485 100 b 228 196 274 100 228 143 z "},"º":{"ha":833,"x_min":0,"x_max":0,"o":"m 417 -17 b 757 368 621 -17 757 135 b 417 753 757 601 621 753 b 76 368 213 753 76 601 b 417 -17 76 135 213 -17 z m 215 368 b 417 629 215 532 289 629 b 618 368 544 629 618 532 b 417 107 618 206 544 107 b 215 368 289 107 215 206 z "},"Ω":{"ha":833,"x_min":0,"x_max":0,"o":"m 417 878 b 679 508 571 878 679 726 b 471 131 679 299 588 135 l 471 0 l 818 0 l 818 129 l 632 129 b 821 517 746 206 821 363 b 417 1008 821 804 653 1008 b 13 517 181 1008 13 804 b 200 129 13 363 88 206 l 15 129 l 15 0 l 363 0 l 363 131 b 154 508 246 135 154 299 b 417 878 154 726 263 878 z "},"π":{"ha":833,"x_min":0,"x_max":0,"o":"m 21 736 l 21 619 l 165 619 l 165 0 l 299 0 l 299 619 l 539 619 l 539 215 b 763 0 539 82 606 0 l 807 0 l 807 117 l 763 117 b 671 213 704 117 671 154 l 671 619 l 810 619 l 810 736 z "},"⁄":{"ha":833,"x_min":0,"x_max":0,"o":"m 815 986 l 690 986 l 18 0 l 143 0 z "},"½":{"ha":1667,"x_min":0,"x_max":0,"o":"m 1232 986 l 1107 986 l 435 0 l 560 0 z m 244 796 l 382 796 l 382 449 l 474 449 l 474 988 l 403 988 b 278 860 403 906 358 860 l 244 860 z m 1097 0 l 1465 0 l 1465 85 l 1206 85 b 1293 189 1207 118 1243 157 l 1332 214 b 1461 400 1415 268 1461 336 b 1294 557 1461 493 1393 557 b 1107 382 1192 557 1119 489 l 1197 376 b 1294 472 1208 439 1240 472 b 1371 400 1336 472 1371 442 b 1303 299 1371 361 1353 331 l 1258 269 b 1097 0 1121 179 1097 86 z "},"⅓":{"ha":1667,"x_min":0,"x_max":0,"o":"m 1232 986 l 1107 986 l 435 0 l 560 0 z m 243 796 l 381 796 l 381 449 l 472 449 l 472 988 l 401 988 b 276 860 401 906 357 860 l 243 860 z m 1092 133 b 1288 -22 1097 46 1181 -22 b 1478 142 1394 -22 1478 50 b 1364 290 1478 210 1429 271 b 1457 413 1424 308 1457 361 b 1286 557 1457 493 1383 557 b 1111 422 1199 557 1122 499 l 1201 417 b 1286 472 1206 446 1240 472 b 1367 399 1329 472 1367 439 b 1281 326 1367 364 1329 326 l 1246 326 l 1246 243 l 1281 243 b 1385 149 1339 243 1385 201 b 1289 63 1385 101 1342 63 b 1183 138 1233 63 1186 97 z "},"⅔":{"ha":1667,"x_min":0,"x_max":0,"o":"m 1229 986 l 1104 986 l 432 0 l 557 0 z m 224 451 l 592 451 l 592 536 l 332 536 b 419 640 333 569 369 608 l 458 665 b 588 851 542 719 588 788 b 421 1008 588 944 519 1008 b 233 833 318 1008 246 940 l 324 828 b 421 924 335 890 367 924 b 497 851 463 924 497 893 b 429 750 497 813 479 782 l 385 721 b 224 451 247 631 224 538 z m 1047 133 b 1243 -22 1053 46 1136 -22 b 1433 142 1350 -22 1433 50 b 1319 290 1433 210 1385 271 b 1413 413 1379 308 1413 361 b 1242 557 1413 493 1339 557 b 1067 422 1154 557 1078 499 l 1157 417 b 1242 472 1161 446 1196 472 b 1322 399 1285 472 1322 439 b 1236 326 1322 364 1285 326 l 1201 326 l 1201 243 l 1236 243 b 1340 149 1294 243 1340 201 b 1244 63 1340 101 1297 63 b 1139 138 1189 63 1142 97 z "},"¼":{"ha":1667,"x_min":0,"x_max":0,"o":"m 1232 986 l 1107 986 l 435 0 l 560 0 z m 244 796 l 382 796 l 382 449 l 474 449 l 474 988 l 403 988 b 278 860 403 906 358 860 l 244 860 z m 1032 103 l 1289 103 l 1289 0 l 1379 0 l 1379 103 l 1439 103 l 1439 186 l 1379 186 l 1379 539 l 1304 539 l 1032 179 z m 1144 186 l 1289 379 l 1289 186 z "},"¾":{"ha":1667,"x_min":0,"x_max":0,"o":"m 1232 986 l 1107 986 l 435 0 l 560 0 z m 222 585 b 418 429 228 497 311 429 b 608 593 525 429 608 501 b 494 742 608 661 560 722 b 588 864 554 760 588 813 b 417 1008 588 944 514 1008 b 242 874 329 1008 253 950 l 332 868 b 417 924 336 897 371 924 b 497 850 460 924 497 890 b 411 778 497 815 460 778 l 376 778 l 376 694 l 411 694 b 515 600 469 694 515 653 b 419 514 515 553 472 514 b 314 589 364 514 317 549 z m 1032 103 l 1289 103 l 1289 0 l 1379 0 l 1379 103 l 1439 103 l 1439 186 l 1379 186 l 1379 539 l 1304 539 l 1032 179 z m 1144 186 l 1289 379 l 1289 186 z "},"⅕":{"ha":1667,"x_min":0,"x_max":0,"o":"m 1233 986 l 1108 986 l 436 0 l 561 0 z m 246 796 l 383 796 l 383 449 l 475 449 l 475 988 l 404 988 b 279 860 404 906 360 860 l 246 860 z m 1074 132 b 1261 -22 1082 42 1160 -22 b 1451 169 1372 -22 1451 57 b 1278 361 1451 278 1379 361 b 1188 325 1242 361 1214 350 l 1204 456 l 1414 456 l 1414 540 l 1126 540 l 1083 226 l 1172 226 b 1264 279 1200 272 1233 279 b 1358 169 1317 279 1358 231 b 1264 63 1358 108 1317 63 b 1167 136 1217 63 1176 93 z "},"⅛":{"ha":1667,"x_min":0,"x_max":0,"o":"m 1232 986 l 1107 986 l 435 0 l 560 0 z m 244 796 l 382 796 l 382 449 l 474 449 l 474 988 l 403 988 b 278 860 403 906 358 860 l 244 860 z m 1049 142 b 1246 -22 1049 42 1133 -22 b 1443 142 1358 -22 1443 42 b 1336 290 1443 211 1403 263 b 1417 403 1388 311 1417 349 b 1246 554 1417 490 1343 554 b 1075 403 1150 554 1075 490 b 1156 290 1075 349 1104 311 b 1049 142 1088 264 1049 211 z m 1142 149 b 1246 244 1142 206 1185 244 b 1350 149 1307 244 1350 206 b 1246 63 1350 97 1307 63 b 1142 149 1185 63 1142 97 z m 1168 401 b 1246 469 1168 442 1200 469 b 1324 401 1292 469 1324 442 b 1246 324 1324 356 1292 324 b 1168 401 1200 324 1168 356 z "},"⅜":{"ha":1667,"x_min":0,"x_max":0,"o":"m 1232 986 l 1107 986 l 435 0 l 560 0 z m 222 585 b 418 429 228 497 311 429 b 608 593 525 429 608 501 b 494 742 608 661 560 722 b 588 864 554 760 588 813 b 417 1008 588 944 514 1008 b 242 874 329 1008 253 950 l 332 868 b 417 924 336 897 371 924 b 497 850 460 924 497 890 b 411 778 497 815 460 778 l 376 778 l 376 694 l 411 694 b 515 600 469 694 515 653 b 419 514 515 553 472 514 b 314 589 364 514 317 549 z m 1049 142 b 1246 -22 1049 42 1133 -22 b 1443 142 1358 -22 1443 42 b 1336 290 1443 211 1403 263 b 1417 403 1388 311 1417 349 b 1246 554 1417 490 1343 554 b 1075 403 1150 554 1075 490 b 1156 290 1075 349 1104 311 b 1049 142 1088 264 1049 211 z m 1142 149 b 1246 244 1142 206 1185 244 b 1350 149 1307 244 1350 206 b 1246 63 1350 97 1307 63 b 1142 149 1185 63 1142 97 z m 1168 401 b 1246 469 1168 442 1200 469 b 1324 401 1292 469 1324 442 b 1246 324 1324 356 1292 324 b 1168 401 1200 324 1168 356 z "},"⅝":{"ha":1667,"x_min":0,"x_max":0,"o":"m 1232 986 l 1107 986 l 435 0 l 560 0 z m 229 579 b 417 425 238 489 315 425 b 607 617 528 425 607 504 b 433 808 607 725 535 808 b 343 772 397 808 369 797 l 360 903 l 569 903 l 569 988 l 282 988 l 239 674 l 328 674 b 419 726 356 719 389 726 b 514 617 472 726 514 678 b 419 510 514 556 472 510 b 322 583 372 510 332 540 z m 1049 142 b 1246 -22 1049 42 1133 -22 b 1443 142 1358 -22 1443 42 b 1336 290 1443 211 1403 263 b 1417 403 1388 311 1417 349 b 1246 554 1417 490 1343 554 b 1075 403 1150 554 1075 490 b 1156 290 1075 349 1104 311 b 1049 142 1088 264 1049 211 z m 1142 149 b 1246 244 1142 206 1185 244 b 1350 149 1307 244 1350 206 b 1246 63 1350 97 1307 63 b 1142 149 1185 63 1142 97 z m 1168 401 b 1246 469 1168 442 1200 469 b 1324 401 1292 469 1324 442 b 1246 324 1324 356 1292 324 b 1168 401 1200 324 1168 356 z "},"⅞":{"ha":1667,"x_min":0,"x_max":0,"o":"m 1232 986 l 1107 986 l 435 0 l 560 0 z m 231 901 l 506 901 b 343 447 403 769 343 611 l 435 447 b 614 919 435 624 506 783 l 614 986 l 231 986 z m 1049 142 b 1246 -22 1049 42 1133 -22 b 1443 142 1358 -22 1443 42 b 1336 290 1443 211 1403 263 b 1417 403 1388 311 1417 349 b 1246 554 1417 490 1343 554 b 1075 403 1150 554 1075 490 b 1156 290 1075 349 1104 311 b 1049 142 1088 264 1049 211 z m 1142 149 b 1246 244 1142 206 1185 244 b 1350 149 1307 244 1350 206 b 1246 63 1350 97 1307 63 b 1142 149 1185 63 1142 97 z m 1168 401 b 1246 469 1168 442 1200 469 b 1324 401 1292 469 1324 442 b 1246 324 1324 356 1292 324 b 1168 401 1200 324 1168 356 z "},"₀":{"ha":833,"x_min":0,"x_max":0,"o":"m 417 -21 b 628 267 547 -21 628 90 b 417 557 628 444 547 557 b 206 267 286 557 206 444 b 417 -21 206 90 286 -21 z m 296 267 b 417 471 296 397 340 471 b 481 447 442 471 463 463 l 307 169 b 296 267 300 197 296 229 z m 353 89 l 526 367 b 538 267 533 339 538 306 b 417 65 538 139 493 65 b 353 89 392 65 369 74 z "},"₁":{"ha":833,"x_min":0,"x_max":0,"o":"m 281 411 l 247 411 l 247 347 l 385 347 l 385 0 l 476 0 l 476 539 l 406 539 b 281 411 406 457 361 411 z "},"₂":{"ha":833,"x_min":0,"x_max":0,"o":"m 232 382 l 322 376 b 419 472 333 439 365 472 b 496 400 461 472 496 442 b 428 299 496 361 478 331 l 383 269 b 222 0 246 179 222 86 l 590 0 l 590 85 l 331 85 b 418 189 332 118 368 157 l 457 214 b 586 400 540 268 586 336 b 419 557 586 493 518 557 b 232 382 317 557 244 489 z "},"₃":{"ha":833,"x_min":0,"x_max":0,"o":"m 411 326 l 376 326 l 376 243 l 411 243 b 515 149 469 243 515 201 b 419 63 515 101 472 63 b 314 138 364 63 317 97 l 222 133 b 418 -22 228 46 311 -22 b 608 142 525 -22 608 50 b 494 290 608 210 560 271 b 588 413 554 308 588 361 b 417 557 588 493 514 557 b 242 422 329 557 253 499 l 332 417 b 417 472 336 446 371 472 b 497 399 460 472 497 439 b 411 326 497 364 460 326 z "},"₄":{"ha":833,"x_min":0,"x_max":0,"o":"m 532 539 l 457 539 l 185 179 l 185 103 l 442 103 l 442 0 l 532 0 l 532 103 l 592 103 l 592 186 l 532 186 z m 297 186 l 442 379 l 442 186 z "},"₅":{"ha":833,"x_min":0,"x_max":0,"o":"m 569 540 l 282 540 l 239 226 l 328 226 b 419 279 356 272 389 279 b 514 169 472 279 514 231 b 419 63 514 108 472 63 b 322 136 372 63 332 93 l 229 132 b 417 -22 238 42 315 -22 b 607 169 528 -22 607 57 b 433 361 607 278 535 361 b 343 325 397 361 369 350 l 360 456 l 569 456 z "},"₆":{"ha":833,"x_min":0,"x_max":0,"o":"m 515 414 l 604 422 b 433 554 581 507 511 554 b 229 233 288 554 229 400 b 418 -22 229 97 292 -22 b 606 174 525 -22 606 53 b 435 367 606 289 531 367 b 317 311 383 367 344 344 b 435 469 328 396 365 469 b 515 414 474 469 503 450 z m 328 174 b 421 282 329 238 371 282 b 513 174 479 282 513 238 b 419 63 513 108 478 63 b 328 174 365 63 326 108 z "},"₇":{"ha":833,"x_min":0,"x_max":0,"o":"m 231 538 l 231 453 l 506 453 b 343 -1 403 321 343 163 l 435 -1 b 614 471 435 175 506 335 l 614 538 z "},"₈":{"ha":833,"x_min":0,"x_max":0,"o":"m 417 -22 b 614 142 529 -22 614 42 b 507 290 614 211 574 263 b 588 403 558 311 588 349 b 417 554 588 490 514 554 b 246 403 321 554 246 490 b 326 290 246 349 275 311 b 219 142 258 264 219 211 b 417 -22 219 42 304 -22 z m 313 149 b 417 244 313 206 356 244 b 521 149 478 244 521 206 b 417 63 521 97 478 63 b 313 149 356 63 313 97 z m 339 401 b 417 469 339 442 371 469 b 494 401 463 469 494 442 b 417 324 494 356 463 324 b 339 401 371 324 339 356 z "},"₉":{"ha":833,"x_min":0,"x_max":0,"o":"m 324 118 l 235 110 b 406 -22 258 25 328 -22 b 610 299 529 -22 610 103 b 421 554 610 435 547 554 b 233 358 314 554 233 479 b 404 165 233 243 308 165 b 522 222 456 165 496 188 b 404 63 511 122 467 63 b 324 118 365 63 336 82 z m 326 358 b 418 469 326 424 361 469 b 511 358 474 469 513 424 b 417 250 510 294 468 250 b 326 358 358 250 326 294 z "},"⁰":{"ha":833,"x_min":0,"x_max":0,"o":"m 417 431 b 628 718 547 431 628 542 b 417 1008 628 896 547 1008 b 206 718 286 1008 206 896 b 417 431 206 542 286 431 z m 296 718 b 417 922 296 849 340 922 b 481 899 442 922 463 914 l 307 621 b 296 718 300 649 296 681 z m 353 540 l 526 818 b 538 718 533 790 538 757 b 417 517 538 590 493 517 b 353 540 392 517 369 525 z "},"¹":{"ha":833,"x_min":0,"x_max":0,"o":"m 281 860 l 247 860 l 247 796 l 385 796 l 385 449 l 476 449 l 476 988 l 406 988 b 281 860 406 906 361 860 z "},"²":{"ha":833,"x_min":0,"x_max":0,"o":"m 232 833 l 322 828 b 419 924 333 890 365 924 b 496 851 461 924 496 893 b 428 750 496 813 478 782 l 383 721 b 222 451 246 631 222 538 l 590 451 l 590 536 l 331 536 b 418 640 332 569 368 608 l 457 665 b 586 851 540 719 586 788 b 419 1008 586 944 518 1008 b 232 833 317 1008 244 940 z "},"³":{"ha":833,"x_min":0,"x_max":0,"o":"m 411 778 l 376 778 l 376 694 l 411 694 b 515 600 469 694 515 653 b 419 514 515 553 472 514 b 314 589 364 514 317 549 l 222 585 b 418 429 228 497 311 429 b 608 593 525 429 608 501 b 494 742 608 661 560 722 b 588 864 554 760 588 813 b 417 1008 588 944 514 1008 b 242 874 329 1008 253 950 l 332 868 b 417 924 336 897 371 924 b 497 850 460 924 497 890 b 411 778 497 815 460 778 z "},"⁴":{"ha":833,"x_min":0,"x_max":0,"o":"m 532 988 l 457 988 l 185 628 l 185 551 l 442 551 l 442 449 l 532 449 l 532 551 l 592 551 l 592 635 l 532 635 z m 297 635 l 442 828 l 442 635 z "},"⁵":{"ha":833,"x_min":0,"x_max":0,"o":"m 569 988 l 282 988 l 239 674 l 328 674 b 419 726 356 719 389 726 b 514 617 472 726 514 678 b 419 510 514 556 472 510 b 322 583 372 510 332 540 l 229 579 b 417 425 238 489 315 425 b 607 617 528 425 607 504 b 433 808 607 725 535 808 b 343 772 397 808 369 797 l 360 903 l 569 903 z "},"⁶":{"ha":833,"x_min":0,"x_max":0,"o":"m 515 868 l 604 876 b 433 1008 581 961 511 1008 b 229 688 288 1008 229 854 b 418 432 229 551 292 432 b 606 628 525 432 606 507 b 435 821 606 743 531 821 b 317 765 383 821 344 799 b 435 924 328 850 365 924 b 515 868 474 924 503 904 z m 328 628 b 421 736 329 692 371 736 b 513 628 479 736 513 692 b 419 517 513 563 478 517 b 328 628 365 517 326 563 z "},"⁷":{"ha":833,"x_min":0,"x_max":0,"o":"m 231 986 l 231 901 l 506 901 b 343 447 403 769 343 611 l 435 447 b 614 919 435 624 506 783 l 614 986 z "},"⁸":{"ha":833,"x_min":0,"x_max":0,"o":"m 417 432 b 614 596 529 432 614 496 b 507 744 614 665 574 717 b 588 857 558 765 588 803 b 417 1008 588 944 514 1008 b 246 857 321 1008 246 944 b 326 744 246 803 275 765 b 219 596 258 718 219 665 b 417 432 219 496 304 432 z m 313 603 b 417 699 313 660 356 699 b 521 603 478 699 521 660 b 417 517 521 551 478 517 b 313 603 356 517 313 551 z m 339 856 b 417 924 339 896 371 924 b 494 856 463 924 494 896 b 417 778 494 810 463 778 b 339 856 371 778 339 810 z "},"⁹":{"ha":833,"x_min":0,"x_max":0,"o":"m 324 572 l 235 564 b 406 432 258 479 328 432 b 610 753 529 432 610 557 b 421 1008 610 889 547 1008 b 233 813 314 1008 233 933 b 404 619 233 697 308 619 b 522 676 456 619 496 642 b 404 517 511 576 467 517 b 324 572 365 517 336 536 z m 326 813 b 418 924 326 878 361 924 b 511 813 474 924 513 878 b 417 704 510 749 468 704 b 326 813 358 704 326 749 z "}," ":{"ha":833,"x_min":0,"x_max":0,"o":""},"。":{"ha":833,"x_min":0,"x_max":0,"o":"m 418 -158 b 601 25 519 -158 601 -76 b 418 211 601 128 519 211 b 232 25 315 211 232 128 b 418 -158 232 -76 315 -158 z m 339 25 b 418 106 339 68 375 106 b 494 25 461 106 494 68 b 418 -53 494 -18 461 -53 b 339 25 375 -53 339 -18 z "},".":{"ha":833,"x_min":0,"x_max":0,"o":"m 329 169 l 329 0 l 504 0 l 504 169 z "},",":{"ha":833,"x_min":0,"x_max":0,"o":"m 504 0 l 504 169 l 329 169 l 329 0 l 400 0 l 328 -224 l 403 -224 z "},":":{"ha":833,"x_min":0,"x_max":0,"o":"m 329 169 l 329 0 l 504 0 l 504 169 z m 329 479 l 504 479 l 504 649 l 329 649 z "},";":{"ha":833,"x_min":0,"x_max":0,"o":"m 332 649 l 332 479 l 507 479 l 507 649 z m 332 -224 l 407 -224 l 508 0 l 508 169 l 333 169 l 333 0 l 404 0 z "},"…":{"ha":833,"x_min":0,"x_max":0,"o":"m 67 169 l 67 0 l 242 0 l 242 169 z m 328 0 l 503 0 l 503 169 l 328 169 z m 592 0 l 767 0 l 767 169 l 592 169 z "},"!":{"ha":833,"x_min":0,"x_max":0,"o":"m 349 986 l 349 674 b 372 293 349 547 365 419 l 461 293 b 485 674 468 419 485 547 l 485 986 z m 329 0 l 504 0 l 504 169 l 329 169 z "},"¡":{"ha":833,"x_min":0,"x_max":0,"o":"m 349 88 l 349 -225 l 485 -225 l 485 88 b 461 468 485 214 468 342 l 372 468 b 349 88 365 342 349 214 z m 329 592 l 504 592 l 504 761 l 329 761 z "},"?":{"ha":833,"x_min":0,"x_max":0,"o":"m 336 292 l 467 292 b 565 478 467 368 494 431 b 738 731 686 560 738 636 b 404 1008 738 894 601 1008 b 74 694 226 1008 90 881 l 215 686 b 411 878 231 804 307 878 b 596 731 524 878 597 817 b 454 554 596 644 531 615 b 336 292 367 482 336 396 z m 314 0 l 489 0 l 489 169 l 314 169 z "},"¿":{"ha":833,"x_min":0,"x_max":0,"o":"m 494 492 l 364 492 b 265 306 364 415 336 353 b 93 53 144 224 93 147 b 426 -225 93 -111 229 -225 b 757 89 604 -225 740 -97 l 615 97 b 419 -94 600 -21 524 -94 b 235 53 307 -94 233 -33 b 376 229 235 139 300 168 b 494 492 464 301 494 388 z m 340 614 l 515 614 l 515 783 l 340 783 z "},"·":{"ha":833,"x_min":0,"x_max":0,"o":"m 329 494 l 329 325 l 504 325 l 504 494 z "},"•":{"ha":833,"x_min":0,"x_max":0,"o":"m 417 232 b 572 388 503 232 572 301 b 417 543 572 474 503 543 b 261 388 331 543 261 474 b 417 232 261 301 331 232 z "},"*":{"ha":833,"x_min":0,"x_max":0,"o":"m 656 807 l 497 806 l 578 943 l 496 990 l 417 853 l 338 990 l 256 943 l 336 806 l 178 807 l 178 713 l 336 714 l 256 576 l 338 529 l 417 667 l 496 529 l 578 576 l 497 714 l 656 713 z "},"〃":{"ha":833,"x_min":0,"x_max":0,"o":"m 439 668 l 300 668 l 213 390 l 313 390 z m 394 390 l 494 390 l 621 668 l 482 668 z "},"#":{"ha":833,"x_min":0,"x_max":0,"o":"m 132 0 l 246 0 l 293 265 l 468 265 l 422 0 l 536 0 l 583 265 l 694 265 l 711 378 l 603 378 l 643 608 l 750 608 l 765 721 l 663 721 l 710 986 l 594 985 l 549 721 l 374 721 l 421 986 l 304 985 l 258 721 l 138 721 l 121 608 l 239 608 l 199 378 l 83 378 l 67 265 l 178 265 z m 313 378 l 354 608 l 529 608 l 489 378 z "},"/":{"ha":833,"x_min":0,"x_max":0,"o":"m 143 -125 l 278 -125 l 689 1063 l 554 1063 z "},"\\":{"ha":833,"x_min":0,"x_max":0,"o":"m 690 -125 l 279 1063 l 144 1063 l 556 -125 z "},"＆":{"ha":833,"x_min":0,"x_max":0,"o":"m 383 1007 b 588 725 521 994 632 868 b 410 517 564 651 504 578 l 617 253 b 654 447 647 294 658 376 l 790 435 b 701 147 790 325 756 214 l 822 0 l 664 0 l 617 58 b 388 -17 564 11 479 -17 b 36 264 178 -17 38 83 b 224 546 36 410 113 463 b 133 778 161 629 133 708 b 383 1007 133 924 254 1018 z m 174 263 b 383 106 175 167 257 107 b 529 158 447 106 503 125 l 306 444 b 174 263 247 407 174 349 z m 268 769 b 332 615 268 729 286 676 b 464 769 413 653 464 714 b 376 876 464 831 431 872 b 268 769 314 881 267 831 z "},"＊":{"ha":833,"x_min":0,"x_max":0,"o":"m 656 807 l 497 806 l 578 943 l 496 990 l 417 853 l 338 990 l 256 943 l 336 806 l 178 807 l 178 713 l 336 714 l 256 576 l 338 529 l 417 667 l 496 529 l 578 576 l 497 714 l 656 713 z "},"＠":{"ha":833,"x_min":0,"x_max":0,"o":"m 507 682 l 503 636 b 407 694 488 672 453 694 b 197 403 303 694 215 574 b 354 113 176 233 243 113 b 490 224 410 113 464 157 b 806 458 519 47 792 51 b 467 986 815 771 678 986 b 28 417 222 986 39 751 b 599 -40 11 -24 311 -214 l 554 57 b 136 417 321 -74 122 51 b 464 879 146 686 283 879 b 697 451 611 879 706 707 b 619 207 690 279 667 207 b 589 361 590 207 581 260 l 614 682 z m 313 407 b 418 611 325 528 368 611 b 483 407 471 611 496 528 b 381 206 472 288 432 206 b 313 407 329 206 301 288 z "},"＼":{"ha":833,"x_min":0,"x_max":0,"o":"m 690 -125 l 279 1063 l 144 1063 l 556 -125 z "},"：":{"ha":833,"x_min":0,"x_max":0,"o":"m 329 169 l 329 0 l 504 0 l 504 169 z m 329 479 l 504 479 l 504 649 l 329 649 z "},"，":{"ha":833,"x_min":0,"x_max":0,"o":"m 504 0 l 504 169 l 329 169 l 329 0 l 400 0 l 328 -224 l 403 -224 z "},"！":{"ha":833,"x_min":0,"x_max":0,"o":"m 349 986 l 349 674 b 372 293 349 547 365 419 l 461 293 b 485 674 468 419 485 547 l 485 986 z m 329 0 l 504 0 l 504 169 l 329 169 z "},"＃":{"ha":833,"x_min":0,"x_max":0,"o":"m 125 0 l 239 0 l 286 265 l 461 265 l 415 0 l 529 0 l 576 265 l 688 265 l 704 378 l 596 378 l 636 608 l 743 608 l 758 721 l 656 721 l 703 986 l 588 985 l 542 721 l 367 721 l 414 986 l 297 985 l 251 721 l 131 721 l 114 608 l 232 608 l 192 378 l 76 378 l 60 265 l 171 265 z m 306 378 l 347 608 l 522 608 l 482 378 z "},"％":{"ha":833,"x_min":0,"x_max":0,"o":"m 574 1008 l -17 -17 l 125 -17 l 717 1008 z m -42 746 b 132 504 -42 610 21 504 b 307 746 244 504 307 610 b 132 988 307 882 244 988 b -42 746 21 988 -42 882 z m 69 746 b 132 878 69 832 92 878 b 197 746 174 878 197 832 b 132 614 197 660 174 614 b 69 746 92 614 69 660 z m 413 242 b 588 0 413 106 475 0 b 761 242 699 0 761 106 b 588 483 761 378 699 483 b 413 242 475 483 413 378 z m 524 242 b 588 374 524 328 546 374 b 651 242 628 374 651 328 b 588 110 651 156 628 110 b 524 242 546 110 524 156 z "},"．":{"ha":833,"x_min":0,"x_max":0,"o":"m 329 163 l 329 -7 l 504 -7 l 504 163 z "},"？":{"ha":833,"x_min":0,"x_max":0,"o":"m 347 292 l 478 292 b 576 478 478 368 506 431 b 749 731 697 560 749 636 b 415 1008 749 894 613 1008 b 85 694 238 1008 101 881 l 226 686 b 422 878 242 804 318 878 b 607 731 535 878 608 817 b 465 554 607 644 542 615 b 347 292 378 482 347 396 z m 325 0 l 500 0 l 500 169 l 325 169 z "},"＂":{"ha":833,"x_min":0,"x_max":0,"o":"m 700 986 l 706 629 l 799 629 l 832 874 l 832 986 z m 460 874 l 493 629 l 585 629 l 590 986 l 460 986 z "},"＇":{"ha":833,"x_min":0,"x_max":0,"o":"m 351 986 l 351 878 l 371 629 l 465 629 l 485 878 l 485 986 z "},"；":{"ha":833,"x_min":0,"x_max":0,"o":"m 332 649 l 332 479 l 507 479 l 507 649 z m 332 -224 l 407 -224 l 508 0 l 508 169 l 333 169 l 333 0 l 404 0 z "},"／":{"ha":833,"x_min":0,"x_max":0,"o":"m 143 -125 l 278 -125 l 689 1063 l 554 1063 z "},"＿":{"ha":833,"x_min":0,"x_max":0,"o":"m 88 -58 l 88 -181 l 746 -181 l 746 -58 z "},"-":{"ha":833,"x_min":0,"x_max":0,"o":"m 183 481 l 183 358 l 650 358 l 650 481 z "},"­":{"ha":833,"x_min":0,"x_max":0,"o":"m 183 481 l 183 358 l 650 358 l 650 481 z "},"–":{"ha":833,"x_min":0,"x_max":0,"o":"m 110 481 l 110 358 l 724 358 l 724 481 z "},"—":{"ha":833,"x_min":0,"x_max":0,"o":"m 57 481 l 57 358 l 776 358 l 776 481 z "},"_":{"ha":833,"x_min":0,"x_max":0,"o":"m 88 -58 l 88 -181 l 746 -181 l 746 -58 z "},"〜":{"ha":833,"x_min":0,"x_max":0,"o":"m 419 529 b 583 467 488 486 542 467 b 738 581 639 467 692 508 l 826 493 b 583 336 775 397 678 336 b 414 397 535 336 478 357 b 250 460 346 440 292 460 b 96 346 194 460 142 418 l 7 433 b 250 590 58 529 156 590 b 419 529 299 590 356 569 z "},"－":{"ha":833,"x_min":0,"x_max":0,"o":"m 31 481 l 31 358 l 803 358 l 803 481 z "},"(":{"ha":833,"x_min":0,"x_max":0,"o":"m 614 1069 l 490 1069 b 490 -125 175 696 175 249 l 614 -125 b 614 1069 332 249 332 696 z "},")":{"ha":833,"x_min":0,"x_max":0,"o":"m 343 1069 l 219 1069 b 219 -125 501 696 501 249 l 343 -125 b 343 1069 658 249 658 696 z "},"{":{"ha":833,"x_min":0,"x_max":0,"o":"m 185 531 l 185 400 b 324 222 268 403 324 335 l 324 110 b 588 -139 324 -37 431 -139 l 663 -139 l 663 -17 b 450 110 508 -22 450 14 l 450 231 b 274 465 450 356 379 447 l 274 468 b 450 700 376 486 450 575 l 450 821 b 663 947 450 917 508 953 l 663 1069 l 588 1069 b 324 821 431 1069 324 968 l 324 708 b 185 531 324 596 268 528 z "},"}":{"ha":833,"x_min":0,"x_max":0,"o":"m 649 400 l 649 531 b 510 708 565 528 510 596 l 510 821 b 246 1069 510 968 403 1069 l 171 1069 l 171 947 b 383 821 325 953 383 917 l 383 700 b 560 468 383 575 457 486 l 560 465 b 383 231 454 447 383 356 l 383 110 b 171 -17 383 14 325 -22 l 171 -139 l 246 -139 b 510 110 403 -139 510 -37 l 510 222 b 649 400 510 335 565 403 z "},"[":{"ha":833,"x_min":0,"x_max":0,"o":"m 228 1069 l 228 -125 l 647 -125 l 647 -3 l 356 -3 l 356 947 l 647 947 l 647 1069 z "},"]":{"ha":833,"x_min":0,"x_max":0,"o":"m 606 1069 l 186 1069 l 186 947 l 478 947 l 478 -3 l 186 -3 l 186 -125 l 606 -125 z "},"〈":{"ha":833,"x_min":0,"x_max":0,"o":"m 483 1140 l 233 492 l 483 -158 l 608 -158 l 360 492 l 608 1140 z "},"〉":{"ha":833,"x_min":0,"x_max":0,"o":"m 350 1140 l 225 1140 l 474 492 l 225 -158 l 350 -158 l 600 492 z "},"【":{"ha":833,"x_min":0,"x_max":0,"o":"m 639 1146 l 254 1146 l 254 -87 l 639 -87 b 639 1146 392 311 392 749 z "},"】":{"ha":833,"x_min":0,"x_max":0,"o":"m 579 1146 l 194 1146 b 194 -87 442 749 442 311 l 579 -87 z "},"｛":{"ha":833,"x_min":0,"x_max":0,"o":"m 185 531 l 185 400 b 324 222 268 403 324 335 l 324 110 b 588 -139 324 -37 431 -139 l 663 -139 l 663 -17 b 450 110 508 -22 450 14 l 450 231 b 274 465 450 356 379 447 l 274 468 b 450 700 376 486 450 575 l 450 821 b 663 947 450 917 508 953 l 663 1069 l 588 1069 b 324 821 431 1069 324 968 l 324 708 b 185 531 324 596 268 528 z "},"｝":{"ha":833,"x_min":0,"x_max":0,"o":"m 649 400 l 649 531 b 510 708 565 528 510 596 l 510 821 b 246 1069 510 968 403 1069 l 171 1069 l 171 947 b 383 821 325 953 383 917 l 383 700 b 560 468 383 575 457 486 l 560 465 b 383 231 454 447 383 356 l 383 110 b 171 -17 383 14 325 -22 l 171 -139 l 246 -139 b 510 110 403 -139 510 -37 l 510 222 b 649 400 510 335 565 403 z "},"「":{"ha":833,"x_min":0,"x_max":0,"o":"m 236 324 l 357 324 l 357 1029 l 658 1029 l 658 1147 l 236 1147 z "},"」":{"ha":833,"x_min":0,"x_max":0,"o":"m 597 681 l 476 681 l 476 -25 l 175 -25 l 175 -143 l 597 -143 z "},"《":{"ha":833,"x_min":0,"x_max":0,"o":"m 356 1140 l 106 492 l 356 -158 l 481 -158 l 232 492 l 481 1140 z m 351 492 l 601 -158 l 726 -158 l 478 492 l 726 1140 l 601 1140 z "},"》":{"ha":833,"x_min":0,"x_max":0,"o":"m 478 1140 l 353 1140 l 601 492 l 353 -158 l 478 -158 l 728 492 z m 107 -158 l 232 -158 l 482 492 l 232 1140 l 107 1140 l 356 492 z "},"〔":{"ha":833,"x_min":0,"x_max":0,"o":"m 588 1181 l 240 871 l 240 111 l 590 -203 l 668 -118 l 361 160 l 361 822 l 665 1096 z "},"〕":{"ha":833,"x_min":0,"x_max":0,"o":"m 246 1181 l 168 1096 l 472 822 l 472 160 l 165 -118 l 243 -203 l 593 111 l 593 871 z "},"『":{"ha":833,"x_min":0,"x_max":0,"o":"m 236 324 l 458 324 l 458 925 l 657 925 l 657 1147 l 236 1147 z m 293 381 l 293 1090 l 600 1090 l 600 982 l 401 982 l 401 381 z "},"』":{"ha":833,"x_min":0,"x_max":0,"o":"m 597 683 l 375 683 l 375 82 l 176 82 l 176 -140 l 597 -140 z m 233 -83 l 233 25 l 432 25 l 432 626 l 540 626 l 540 -83 z "},"〖":{"ha":833,"x_min":0,"x_max":0,"o":"m 635 1146 l 254 1146 l 254 -87 l 635 -87 b 635 1146 388 311 388 749 z m 315 -26 l 315 1085 l 528 1085 b 528 -26 340 717 340 343 z "},"〗":{"ha":833,"x_min":0,"x_max":0,"o":"m 579 1146 l 199 1146 b 199 -87 446 749 446 311 l 579 -87 z m 306 -26 b 306 1085 493 343 493 717 l 518 1085 l 518 -26 z "},"［":{"ha":833,"x_min":0,"x_max":0,"o":"m 235 1069 l 235 -125 l 654 -125 l 654 -3 l 363 -3 l 363 947 l 654 947 l 654 1069 z "},"］":{"ha":833,"x_min":0,"x_max":0,"o":"m 614 1069 l 194 1069 l 194 947 l 486 947 l 486 -3 l 194 -3 l 194 -125 l 614 -125 z "},"（":{"ha":833,"x_min":0,"x_max":0,"o":"m 614 1069 l 490 1069 b 490 -125 175 696 175 249 l 614 -125 b 614 1069 332 249 332 696 z "},"）":{"ha":833,"x_min":0,"x_max":0,"o":"m 354 1069 l 231 1069 b 231 -125 513 696 513 249 l 354 -125 b 354 1069 669 249 669 696 z "},"‚":{"ha":833,"x_min":0,"x_max":0,"o":"m 513 0 l 513 169 l 338 169 l 338 0 l 408 0 l 336 -224 l 411 -224 z "},"„":{"ha":833,"x_min":0,"x_max":0,"o":"m 386 0 l 386 169 l 211 169 l 211 0 l 282 0 l 210 -224 l 285 -224 z m 449 -224 l 524 -224 l 625 0 l 625 169 l 450 169 l 450 0 l 521 0 z "},"“":{"ha":833,"x_min":0,"x_max":0,"o":"m 447 763 l 447 593 l 622 593 l 622 763 l 551 763 l 624 986 l 549 986 z m 208 593 l 383 593 l 383 763 l 313 763 l 385 986 l 310 986 l 208 763 z "},"”":{"ha":833,"x_min":0,"x_max":0,"o":"m 386 817 l 386 986 l 211 986 l 211 817 l 282 817 l 210 593 l 285 593 z m 449 593 l 524 593 l 625 817 l 625 986 l 450 986 l 450 817 l 521 817 z "},"‘":{"ha":833,"x_min":0,"x_max":0,"o":"m 319 763 l 319 593 l 494 593 l 494 763 l 424 763 l 496 986 l 421 986 z "},"’":{"ha":833,"x_min":0,"x_max":0,"o":"m 513 817 l 513 986 l 338 986 l 338 817 l 408 817 l 336 593 l 411 593 z "},"«":{"ha":833,"x_min":0,"x_max":0,"o":"m 292 661 l 97 431 l 97 336 l 292 106 l 450 106 l 214 383 l 450 661 z m 383 336 l 578 106 l 736 106 l 500 383 l 736 661 l 578 661 l 383 431 z "},"»":{"ha":833,"x_min":0,"x_max":0,"o":"m 542 661 l 383 661 l 619 383 l 383 106 l 542 106 l 736 336 l 736 431 z m 97 106 l 256 106 l 450 336 l 450 431 l 256 661 l 97 661 l 333 383 z "},"‹":{"ha":833,"x_min":0,"x_max":0,"o":"m 457 661 l 263 431 l 263 336 l 457 106 l 615 106 l 379 383 l 615 661 z "},"›":{"ha":833,"x_min":0,"x_max":0,"o":"m 376 661 l 218 661 l 454 383 l 218 106 l 376 106 l 571 336 l 571 431 z "},"\"":{"ha":833,"x_min":0,"x_max":0,"o":"m 471 986 l 476 629 l 569 629 l 603 874 l 603 986 z m 231 874 l 264 629 l 356 629 l 361 986 l 231 986 z "},"'":{"ha":833,"x_min":0,"x_max":0,"o":"m 350 986 l 350 878 l 369 629 l 464 629 l 483 878 l 483 986 z "},"ƒ":{"ha":833,"x_min":0,"x_max":0,"o":"m 71 0 l 210 -1 b 424 188 336 -3 410 65 l 471 613 l 715 613 l 715 731 l 485 731 l 492 793 b 576 868 497 842 526 868 l 715 868 l 715 985 l 578 986 b 364 797 451 988 378 919 l 357 731 l 171 731 l 171 613 l 343 613 l 297 192 b 214 117 292 143 263 115 l 82 119 z "},"฿":{"ha":833,"x_min":0,"x_max":0,"o":"m 343 1118 l 343 986 l 104 986 l 104 0 l 343 0 l 343 -126 l 450 -126 l 450 0 b 776 279 653 6 776 111 b 551 510 776 408 690 494 b 735 713 661 526 735 606 b 450 983 735 869 635 964 l 450 1118 z m 240 131 l 240 436 l 343 436 l 343 131 z m 240 567 l 240 856 l 343 856 l 343 567 z m 450 131 l 450 436 b 633 282 568 432 633 378 b 450 131 633 192 564 136 z m 450 572 l 450 850 b 592 710 543 835 592 786 b 450 572 592 633 543 586 z "},"@":{"ha":833,"x_min":0,"x_max":0,"o":"m 507 682 l 503 636 b 407 694 488 672 453 694 b 197 403 303 694 215 574 b 354 113 176 233 243 113 b 490 224 410 113 464 157 b 806 458 519 47 792 51 b 467 986 815 771 678 986 b 28 417 222 986 39 751 b 599 -40 11 -24 311 -214 l 554 57 b 136 417 321 -74 122 51 b 464 879 146 686 283 879 b 697 451 611 879 706 707 b 619 207 690 279 667 207 b 589 361 590 207 581 260 l 614 682 z m 313 407 b 418 611 325 528 368 611 b 483 407 471 611 496 528 b 381 206 472 288 432 206 b 313 407 329 206 301 288 z "},"&":{"ha":833,"x_min":0,"x_max":0,"o":"m 383 1007 b 588 725 521 994 632 868 b 410 517 564 651 504 578 l 617 253 b 654 447 647 294 658 376 l 790 435 b 701 147 790 325 756 214 l 822 0 l 664 0 l 617 58 b 388 -17 564 11 479 -17 b 36 264 178 -17 38 83 b 224 546 36 410 113 463 b 133 778 161 629 133 708 b 383 1007 133 924 254 1018 z m 174 263 b 383 106 175 167 257 107 b 529 158 447 106 503 125 l 306 444 b 174 263 247 407 174 349 z m 268 769 b 332 615 268 729 286 676 b 464 769 413 653 464 714 b 376 876 464 831 431 872 b 268 769 314 881 267 831 z "},"¶":{"ha":833,"x_min":0,"x_max":0,"o":"m 713 986 l 390 986 b 53 706 183 986 53 878 b 378 426 53 536 178 429 l 378 0 l 496 0 l 496 881 l 594 881 l 594 0 l 713 0 z "},"§":{"ha":833,"x_min":0,"x_max":0,"o":"m 586 700 l 724 708 b 424 946 703 860 549 946 b 133 725 264 946 133 868 b 253 576 133 661 174 613 b 131 397 164 535 129 471 b 410 189 133 292 211 233 b 583 69 535 158 583 121 b 431 -24 583 13 524 -24 b 246 113 332 -24 258 28 l 108 104 b 431 -146 122 -43 260 -146 b 721 60 581 -146 721 -76 b 617 232 721 132 700 190 b 725 383 690 264 725 315 b 444 622 725 510 653 571 b 272 735 311 657 274 681 b 410 824 272 788 331 824 b 586 700 511 824 572 776 z m 268 411 b 406 500 268 464 326 500 b 586 393 476 500 586 474 b 432 303 586 336 525 303 b 268 411 308 315 268 358 z "},"©":{"ha":833,"x_min":0,"x_max":0,"o":"m 415 -17 b 828 496 658 -17 828 193 b 415 1008 828 799 658 1008 b 4 496 172 1008 4 799 b 415 -17 4 193 172 -17 z m 107 496 b 415 906 107 750 225 906 b 725 496 606 906 725 750 b 415 86 725 242 606 86 b 107 496 225 86 107 242 z m 183 494 b 424 181 183 303 279 181 b 649 403 538 181 632 265 l 546 410 b 424 283 535 326 488 283 b 286 494 331 283 286 361 b 424 707 286 629 331 707 b 542 592 486 707 531 667 l 644 599 b 424 810 631 729 533 810 b 183 494 279 810 183 686 z "},"®":{"ha":833,"x_min":0,"x_max":0,"o":"m 406 844 l 279 844 l 279 469 l 356 469 l 356 611 l 407 611 l 490 469 l 576 469 l 482 622 b 563 726 533 636 563 675 b 406 844 563 799 503 844 z m 67 658 b 417 306 67 464 222 306 b 767 658 611 306 767 464 b 417 1008 767 851 611 1008 b 67 658 222 1008 67 851 z m 150 658 b 417 924 150 804 271 924 b 683 658 561 924 683 804 b 417 390 683 511 561 390 b 150 658 271 390 150 511 z m 356 675 l 356 778 l 414 778 b 486 728 460 778 486 761 b 414 675 486 694 460 675 z "},"℗":{"ha":833,"x_min":0,"x_max":0,"o":"m 426 844 l 300 844 l 300 469 l 376 469 l 376 611 l 429 611 b 583 726 528 611 583 653 b 426 844 583 799 522 844 z m 67 658 b 417 306 67 464 222 306 b 767 658 611 306 767 464 b 417 1008 767 851 611 1008 b 67 658 222 1008 67 851 z m 150 658 b 417 924 150 804 271 924 b 683 658 561 924 683 804 b 417 390 683 511 561 390 b 150 658 271 390 150 511 z m 375 675 l 375 778 l 435 778 b 507 728 481 778 507 761 b 435 675 507 694 481 675 z "},"™":{"ha":833,"x_min":0,"x_max":0,"o":"m 21 986 l 21 903 l 132 903 l 132 499 l 221 499 l 221 903 l 332 903 l 332 986 z m 372 499 l 461 499 l 461 743 l 542 499 l 636 499 l 715 736 l 715 499 l 804 499 l 804 986 l 707 986 l 589 621 l 471 986 l 372 986 z "},"°":{"ha":833,"x_min":0,"x_max":0,"o":"m 417 529 b 633 744 536 529 633 626 b 417 961 633 864 536 961 b 200 744 297 961 200 864 b 417 529 200 626 297 529 z m 311 744 b 417 853 311 803 358 853 b 522 744 475 853 522 803 b 417 638 522 686 475 638 b 311 744 358 638 311 686 z "},"|":{"ha":833,"x_min":0,"x_max":0,"o":"m 351 1069 l 351 -125 l 482 -125 l 482 1069 z "},"¦":{"ha":833,"x_min":0,"x_max":0,"o":"m 354 986 l 354 493 l 479 493 l 479 986 z m 354 -208 l 479 -208 l 479 285 l 354 285 z "},"†":{"ha":833,"x_min":0,"x_max":0,"o":"m 356 986 l 356 735 l 140 735 l 140 618 l 356 618 l 356 0 l 481 0 l 481 618 l 694 618 l 694 735 l 481 735 l 481 986 z "},"‡":{"ha":833,"x_min":0,"x_max":0,"o":"m 353 986 l 353 735 l 138 735 l 138 618 l 353 618 l 353 139 l 140 139 l 140 22 l 353 22 l 353 -208 l 478 -208 l 478 22 l 694 22 l 694 139 l 478 139 l 478 618 l 692 618 l 692 735 l 478 735 l 478 986 z "},"№":{"ha":833,"x_min":0,"x_max":0,"o":"m 7 986 l 7 0 l 132 0 l 132 663 l 292 0 l 450 0 l 450 986 l 325 986 l 325 331 l 169 986 z m 492 442 b 660 200 492 294 563 200 b 828 442 757 200 828 294 b 660 683 828 590 757 683 b 492 442 563 683 492 590 z m 515 0 l 806 0 l 806 118 l 515 118 z m 603 442 b 660 574 603 524 628 574 b 718 442 694 574 718 524 b 660 311 718 360 694 311 b 603 442 628 311 603 360 z "},"␣":{"ha":833,"x_min":0,"x_max":0,"o":"m 51 0 l 51 -265 l 782 -265 l 782 0 l 667 0 l 667 -150 l 167 -150 l 167 0 z "},"␌":{"ha":833,"x_min":0,"x_max":0,"o":"m 461 557 l 461 99 l 533 99 l 533 288 l 732 288 l 732 358 l 533 358 l 533 486 l 744 486 l 744 557 z m 110 417 l 182 417 l 182 606 l 381 606 l 381 676 l 182 676 l 182 804 l 393 804 l 393 875 l 110 875 z "},"⌧":{"ha":833,"x_min":0,"x_max":0,"o":"m 19 986 l 19 0 l 814 0 l 814 986 z m 122 103 l 122 883 l 711 883 l 711 103 z m 211 617 l 336 492 l 213 368 l 293 288 l 417 411 l 540 286 l 622 368 l 499 493 l 621 615 l 540 696 l 418 574 l 293 697 z "},"⌫":{"ha":833,"x_min":0,"x_max":0,"o":"m 218 986 l 6 490 l 218 0 l 822 0 l 822 986 z m 118 492 l 288 883 l 719 883 l 719 103 l 288 103 z m 249 614 l 371 492 l 250 371 l 331 290 l 451 411 l 574 289 l 654 371 l 533 493 l 654 614 l 574 694 l 453 574 l 331 694 z "},"⌦":{"ha":833,"x_min":0,"x_max":0,"o":"m 615 986 l 11 986 l 11 0 l 615 0 l 828 490 z m 114 103 l 114 883 l 546 883 l 715 492 l 546 103 z m 179 371 l 260 289 l 382 411 l 503 290 l 583 371 l 463 492 l 585 614 l 503 694 l 382 574 l 260 694 l 179 614 l 301 493 z "},"⏎":{"ha":833,"x_min":0,"x_max":0,"o":"m 326 365 l 326 235 l 157 414 l 326 592 l 326 464 l 610 464 l 610 868 l 710 868 l 710 365 z m 4 414 l 417 -21 l 417 249 l 826 249 l 826 986 l 494 986 l 494 581 l 417 581 l 417 847 z "},"␋":{"ha":833,"x_min":0,"x_max":0,"o":"m 761 557 l 426 557 l 426 486 l 557 486 l 557 99 l 631 99 l 631 486 l 761 486 z m 72 875 l 213 417 l 288 417 l 428 875 l 351 875 l 250 531 l 149 875 z "},"¢":{"ha":833,"x_min":0,"x_max":0,"o":"m 610 481 l 749 490 b 504 746 732 626 629 721 l 515 874 l 408 874 l 397 751 b 93 368 213 735 93 589 b 332 -3 93 175 185 39 l 321 -126 l 428 -126 l 438 -17 b 754 258 596 -15 732 90 l 614 267 b 449 107 600 172 531 113 l 493 619 b 610 481 551 600 599 551 z m 232 368 b 386 624 232 510 289 601 l 343 128 b 232 368 272 165 232 250 z "},"¤":{"ha":833,"x_min":0,"x_max":0,"o":"m 415 131 b 574 179 474 131 528 149 l 681 72 l 757 149 l 650 256 b 697 413 679 301 697 354 b 649 569 697 471 679 525 l 757 678 l 681 754 l 572 646 b 415 694 528 676 474 694 b 258 647 357 694 304 676 l 151 754 l 75 678 l 182 571 b 133 413 151 525 133 471 b 182 256 133 354 151 300 l 75 149 l 151 72 l 258 179 b 415 131 303 149 357 131 z m 249 413 b 415 579 249 504 324 579 b 582 413 506 579 582 504 b 415 246 582 321 506 246 b 249 413 324 246 249 321 z "},"$":{"ha":833,"x_min":0,"x_max":0,"o":"m 207 326 l 67 318 b 368 -10 81 142 201 19 l 368 -126 l 475 -126 l 475 -15 b 778 265 633 -6 778 92 b 475 556 778 414 640 507 l 475 865 b 619 683 551 839 607 774 l 760 692 b 475 1001 742 853 633 974 l 475 1118 l 368 1118 l 368 1007 b 88 732 204 994 88 890 b 368 456 88 579 219 497 l 368 126 b 207 326 282 156 226 228 z m 228 731 b 368 876 226 811 288 865 l 368 586 b 228 731 290 613 229 651 z m 475 114 l 475 424 b 638 254 585 382 638 331 b 475 114 638 167 571 121 z "},"€":{"ha":833,"x_min":0,"x_max":0,"o":"m 13 646 l 13 538 l 65 538 b 64 492 64 522 64 507 b 65 432 64 471 64 451 l 13 432 l 13 324 l 79 324 b 450 -22 122 107 251 -22 b 804 318 638 -22 765 108 l 661 326 b 449 108 632 185 557 108 b 222 324 333 108 256 183 l 483 324 l 499 432 l 207 432 b 206 492 206 451 206 471 b 207 538 206 507 206 522 l 511 538 l 526 646 l 219 646 b 449 878 250 796 329 878 b 653 679 547 878 619 808 l 797 689 b 450 1008 751 886 626 1008 b 76 646 247 1008 115 872 z "},"₴":{"ha":833,"x_min":0,"x_max":0,"o":"m 29 326 l 81 326 b 65 261 71 307 65 283 b 406 -17 65 97 204 -17 b 767 239 588 -17 726 83 l 615 250 b 399 114 581 167 497 114 b 206 261 285 114 206 174 b 229 326 206 283 214 306 l 804 326 l 804 436 l 29 436 z m 29 538 l 804 538 l 804 647 l 739 647 b 761 726 753 671 761 700 b 414 1008 761 900 628 1008 b 83 739 251 1008 125 903 l 231 726 b 429 878 271 822 342 878 b 619 726 543 878 621 815 b 590 647 619 693 611 668 l 29 647 z "},"₽":{"ha":833,"x_min":0,"x_max":0,"o":"m 454 986 l 147 986 l 147 268 l 43 268 l 43 161 l 147 161 l 147 0 l 283 0 l 283 161 l 406 161 l 406 268 l 283 268 l 283 374 l 454 374 b 804 683 672 374 804 492 b 454 986 804 871 672 986 z m 283 504 l 283 856 l 450 856 b 661 683 590 856 661 797 b 450 504 661 565 590 504 z "},"₹":{"ha":833,"x_min":0,"x_max":0,"o":"m 465 0 l 651 0 l 232 379 l 325 379 b 668 628 518 379 643 471 l 783 628 l 783 736 l 669 736 b 608 878 661 792 640 839 l 783 878 l 783 986 l 49 986 l 49 856 l 319 856 b 525 736 436 856 506 815 l 49 736 l 49 628 l 524 628 b 319 508 503 549 435 508 l 49 508 l 49 379 z "},"₪":{"ha":833,"x_min":0,"x_max":0,"o":"m 379 986 l 26 986 l 26 0 l 151 0 l 151 865 l 379 865 b 463 782 431 865 463 833 l 463 215 l 588 215 l 588 778 b 379 986 588 906 507 986 z m 244 0 l 597 0 b 806 208 725 0 806 81 l 806 986 l 681 986 l 681 204 b 597 121 681 153 649 121 l 371 121 l 371 771 l 244 771 z "},"£":{"ha":833,"x_min":0,"x_max":0,"o":"m 454 1008 b 154 735 286 1008 154 890 b 186 571 154 688 165 633 l 196 544 l 61 544 l 61 433 l 217 433 b 218 386 217 417 218 401 b 63 133 217 274 163 192 l 63 0 l 761 4 l 761 133 l 186 133 b 353 433 310 189 363 308 l 572 433 l 572 544 l 332 544 b 294 713 311 615 296 671 b 458 878 293 810 371 878 b 624 758 535 878 601 833 l 778 768 b 454 1008 756 890 650 1008 z "},"¥":{"ha":833,"x_min":0,"x_max":0,"o":"m 61 986 l 297 508 l 126 508 l 126 393 l 350 393 l 350 307 l 126 307 l 126 192 l 350 192 l 350 0 l 486 0 l 486 192 l 710 192 l 710 307 l 486 307 l 486 393 l 710 393 l 710 508 l 539 508 l 774 986 l 621 986 l 418 557 l 214 986 z "},"+":{"ha":833,"x_min":0,"x_max":0,"o":"m 86 485 l 86 363 l 356 363 l 356 93 l 478 93 l 478 363 l 747 363 l 747 485 l 478 485 l 478 754 l 356 754 l 356 485 z "},"−":{"ha":833,"x_min":0,"x_max":0,"o":"m 86 514 l 86 390 l 747 390 l 747 514 z "},"×":{"ha":833,"x_min":0,"x_max":0,"o":"m 257 663 l 169 576 l 360 386 l 169 196 l 257 110 l 447 300 l 638 110 l 724 196 l 533 386 l 724 576 l 638 663 l 447 472 z "},"÷":{"ha":833,"x_min":0,"x_max":0,"o":"m 86 514 l 86 390 l 747 390 l 747 514 z m 326 190 b 417 100 326 140 367 100 b 507 190 467 100 507 140 b 417 281 507 240 467 281 b 326 190 367 281 326 240 z m 326 725 b 417 635 326 675 367 635 b 507 725 467 635 507 675 b 417 815 507 775 467 815 b 326 725 367 815 326 775 z "},"=":{"ha":833,"x_min":0,"x_max":0,"o":"m 110 638 l 110 514 l 724 514 l 724 638 z m 110 203 l 724 203 l 724 325 l 110 325 z "},"≠":{"ha":833,"x_min":0,"x_max":0,"o":"m 429 739 l 399 638 l 110 638 l 110 514 l 361 514 l 303 325 l 110 325 l 110 203 l 265 203 l 213 28 l 335 28 l 388 203 l 724 203 l 724 325 l 425 325 l 483 514 l 724 514 l 724 638 l 521 638 l 551 739 z "},">":{"ha":833,"x_min":0,"x_max":0,"o":"m 100 790 l 100 657 l 619 429 l 100 201 l 100 67 l 735 346 l 735 513 z "},"<":{"ha":833,"x_min":0,"x_max":0,"o":"m 733 790 l 99 513 l 99 346 l 733 67 l 733 201 l 214 429 l 733 657 z "},"≥":{"ha":833,"x_min":0,"x_max":0,"o":"m 86 122 l 86 0 l 747 0 l 747 122 z m 86 253 l 747 431 l 747 599 l 86 778 l 86 650 l 614 515 l 86 379 z "},"≤":{"ha":833,"x_min":0,"x_max":0,"o":"m 747 122 l 86 122 l 86 0 l 747 0 z m 86 431 l 747 253 l 747 379 l 219 515 l 747 650 l 747 778 l 86 599 z "},"±":{"ha":833,"x_min":0,"x_max":0,"o":"m 76 165 l 76 43 l 747 43 l 747 165 z m 76 453 l 350 453 l 350 278 l 472 278 l 472 453 l 747 453 l 747 575 l 472 575 l 472 750 l 350 750 l 350 575 l 76 575 z "},"≈":{"ha":833,"x_min":0,"x_max":0,"o":"m 108 431 l 231 431 b 300 565 231 513 251 565 b 392 500 342 565 364 535 b 540 419 425 460 463 419 b 725 667 654 419 725 521 l 603 667 b 533 533 603 586 583 533 b 436 606 488 533 465 569 b 294 679 404 644 365 679 b 108 431 179 679 108 576 z m 108 128 l 231 128 b 300 261 231 210 251 261 b 386 203 339 261 361 236 b 540 115 421 160 458 115 b 725 364 654 115 725 218 l 603 364 b 533 229 603 282 583 229 b 421 319 481 229 460 278 b 294 375 392 351 354 375 b 108 128 179 375 108 274 z "},"~":{"ha":833,"x_min":0,"x_max":0,"o":"m 528 447 b 303 599 442 447 450 599 b 100 325 150 599 100 443 l 231 325 b 304 478 231 418 258 478 b 529 326 386 478 371 326 b 732 600 682 326 732 482 l 601 600 b 528 447 601 507 574 447 z "},"¬":{"ha":833,"x_min":0,"x_max":0,"o":"m 125 482 l 125 365 l 550 365 l 550 133 l 668 133 l 668 482 z "},"^":{"ha":833,"x_min":0,"x_max":0,"o":"m 511 532 l 638 532 l 499 935 l 335 935 l 196 532 l 322 532 l 417 814 z "},"∞":{"ha":833,"x_min":0,"x_max":0,"o":"m 363 376 b 214 275 326 317 265 275 b 128 376 163 275 128 317 b 214 478 128 436 163 476 b 363 376 265 476 326 435 z m 10 376 b 210 156 10 254 94 156 b 417 292 285 156 371 204 b 626 156 463 204 550 156 b 822 376 739 156 822 254 b 626 596 822 499 739 597 b 417 461 546 596 464 546 b 210 597 371 544 288 597 b 10 376 94 597 10 499 z m 469 376 b 622 476 510 436 571 478 b 704 376 671 475 704 433 b 622 275 704 318 671 276 b 469 376 569 274 508 315 z "},"∫":{"ha":833,"x_min":0,"x_max":0,"o":"m 143 -207 l 221 -208 b 435 -19 347 -211 421 -142 l 525 793 b 610 868 531 842 560 871 l 676 865 l 689 985 l 611 986 b 397 797 485 989 411 919 l 308 -15 b 225 -90 303 -64 274 -92 l 154 -87 z "},"∆":{"ha":833,"x_min":0,"x_max":0,"o":"m 19 190 l 19 0 l 814 0 l 814 190 l 501 986 l 333 986 z m 121 121 l 417 869 l 713 121 z "},"∏":{"ha":833,"x_min":0,"x_max":0,"o":"m 813 986 l 21 986 l 21 864 l 171 864 l 171 -208 l 297 -208 l 297 864 l 542 864 l 542 -208 l 668 -208 l 668 864 l 813 864 z "},"∑":{"ha":833,"x_min":0,"x_max":0,"o":"m 94 986 l 94 856 l 338 493 l 94 131 l 94 0 l 761 0 l 761 131 l 250 131 l 492 493 l 250 856 l 761 856 l 761 986 z "},"√":{"ha":833,"x_min":0,"x_max":0,"o":"m 814 986 l 424 986 l 239 17 l 147 467 l 21 467 l 160 -208 l 321 -208 l 528 868 l 814 868 z "},"∂":{"ha":833,"x_min":0,"x_max":0,"o":"m 419 658 b 54 346 214 676 72 556 b 368 -17 36 149 167 0 b 604 65 451 -25 529 1 b 274 1046 814 251 883 981 l 240 922 b 622 522 474 903 617 749 b 419 658 583 601 513 649 z m 193 336 b 410 533 203 463 293 544 b 604 368 507 525 588 468 b 369 106 592 204 496 94 b 193 336 254 117 181 204 z "},"µ":{"ha":833,"x_min":0,"x_max":0,"o":"m 711 0 l 711 736 l 579 736 l 579 297 b 403 96 579 174 511 96 b 261 297 308 96 261 164 l 261 736 l 128 736 l 128 -208 l 261 -208 l 261 68 b 403 -17 283 15 339 -17 b 585 115 482 -17 553 33 l 585 0 z "},"%":{"ha":833,"x_min":0,"x_max":0,"o":"m 631 1008 l 40 -17 l 182 -17 l 774 1008 z m 15 746 b 189 504 15 610 78 504 b 364 746 301 504 364 610 b 189 988 364 882 301 988 b 15 746 78 988 15 882 z m 126 746 b 189 878 126 832 149 878 b 254 746 231 878 254 832 b 189 614 254 660 231 614 b 126 746 149 614 126 660 z m 469 242 b 644 0 469 106 532 0 b 818 242 756 0 818 106 b 644 483 818 378 756 483 b 469 242 532 483 469 378 z m 581 242 b 644 374 581 328 603 374 b 708 242 685 374 708 328 b 644 110 708 156 685 110 b 581 242 603 110 581 156 z "},"‰":{"ha":833,"x_min":0,"x_max":0,"o":"m 529 1008 l 4 -17 l 131 -17 l 657 1008 z m 15 768 b 172 550 15 646 72 550 b 331 768 274 550 331 646 b 172 988 331 892 274 988 b 15 768 72 988 15 892 z m 115 768 b 172 888 115 847 135 888 b 232 768 210 888 232 847 b 172 649 232 690 210 649 b 115 768 135 649 115 690 z m 325 218 b 474 0 325 96 382 0 b 578 64 519 0 554 22 b 681 0 601 22 636 0 b 831 218 774 0 831 96 b 681 438 831 340 774 438 b 578 374 636 438 601 415 b 474 438 554 415 519 438 b 325 218 382 438 325 340 z m 426 218 b 483 338 426 297 446 338 b 542 218 519 338 542 297 b 483 99 542 140 519 99 b 426 218 446 99 426 140 z m 615 218 b 672 338 615 297 635 338 b 731 218 708 338 731 297 b 672 99 731 140 708 99 b 615 218 635 99 615 140 z "},"↑":{"ha":833,"x_min":0,"x_max":0,"o":"m 417 964 l 42 590 l 42 425 l 356 739 l 356 25 l 478 25 l 478 736 l 792 424 l 792 589 z "},"↗":{"ha":833,"x_min":0,"x_max":0,"o":"m 742 986 l 213 986 l 96 869 l 540 869 l 35 365 l 121 278 l 624 781 l 625 339 l 742 456 z "},"→":{"ha":833,"x_min":0,"x_max":0,"o":"m 824 438 l 464 799 l 299 799 l 599 499 l 22 499 l 22 376 l 599 376 l 297 75 l 464 76 z "},"↘":{"ha":833,"x_min":0,"x_max":0,"o":"m 756 0 l 757 529 l 640 646 l 640 203 l 135 707 l 49 621 l 551 118 l 108 117 l 225 0 z "},"↓":{"ha":833,"x_min":0,"x_max":0,"o":"m 417 25 l 792 400 l 792 565 l 478 253 l 478 964 l 356 964 l 356 250 l 42 564 l 42 399 z "},"↙":{"ha":833,"x_min":0,"x_max":0,"o":"m 78 0 l 608 0 l 725 117 l 282 118 l 785 621 l 699 707 l 193 203 l 193 646 l 76 529 z "},"←":{"ha":833,"x_min":0,"x_max":0,"o":"m 10 438 l 369 76 l 536 75 l 235 376 l 811 376 l 811 499 l 235 499 l 535 799 l 369 799 z "},"↖":{"ha":833,"x_min":0,"x_max":0,"o":"m 92 986 l 92 456 l 208 339 l 210 781 l 713 278 l 799 365 l 293 869 l 738 869 l 621 986 z "},"↝":{"ha":833,"x_min":0,"x_max":0,"o":"m 24 421 l 149 421 b 269 507 174 496 226 532 b 317 383 311 483 308 435 b 401 256 325 336 343 290 b 688 383 499 200 613 257 l 806 314 l 775 651 l 471 511 l 583 444 b 453 363 540 371 494 339 b 407 468 415 383 413 425 b 321 613 400 518 389 574 b 24 421 211 676 49 576 z "},"⇤":{"ha":833,"x_min":0,"x_max":0,"o":"m 176 435 l 456 203 l 456 374 l 807 374 l 807 496 l 454 496 l 454 667 z m 26 164 l 140 164 l 140 706 l 26 706 z "},"⇥":{"ha":833,"x_min":0,"x_max":0,"o":"m 657 435 l 379 667 l 379 496 l 26 496 l 26 374 l 378 374 l 378 203 z m 693 164 l 807 164 l 807 706 l 693 706 z "},"↩":{"ha":833,"x_min":0,"x_max":0,"o":"m 501 335 b 811 632 675 335 811 465 b 501 929 811 799 675 929 l 92 929 l 92 807 l 501 807 b 689 632 606 807 689 731 b 501 457 689 533 606 457 l 243 457 l 413 626 l 250 626 l 22 396 l 253 164 l 414 164 l 244 335 z "},"↪":{"ha":833,"x_min":0,"x_max":0,"o":"m 332 335 l 589 335 l 419 164 l 581 164 l 811 396 l 583 626 l 421 626 l 590 457 l 332 457 b 144 632 228 457 144 533 b 332 807 144 731 228 807 l 742 807 l 742 929 l 332 929 b 22 632 158 929 22 799 b 332 335 22 465 158 335 z "},"↰":{"ha":833,"x_min":0,"x_max":0,"o":"m 25 618 l 308 382 l 308 557 l 672 557 l 672 0 l 794 0 l 794 679 l 307 679 l 307 854 z "},"↱":{"ha":833,"x_min":0,"x_max":0,"o":"m 808 618 l 526 854 l 526 679 l 39 679 l 39 0 l 161 0 l 161 557 l 525 557 l 525 382 z "},"↳":{"ha":833,"x_min":0,"x_max":0,"o":"m 808 368 l 525 604 l 525 429 l 161 429 l 161 986 l 39 986 l 39 307 l 526 307 l 526 132 z "},"↴":{"ha":833,"x_min":0,"x_max":0,"o":"m 590 0 l 822 278 l 651 278 l 651 986 l 19 986 l 19 864 l 529 864 l 529 279 l 358 279 z "},"↵":{"ha":833,"x_min":0,"x_max":0,"o":"m 25 368 l 307 132 l 307 307 l 794 307 l 794 986 l 672 986 l 672 429 l 308 429 l 308 604 z "},"⇧":{"ha":833,"x_min":0,"x_max":0,"o":"m 528 626 l 528 122 l 308 122 l 308 626 l 236 626 l 418 825 l 599 626 z m 3 550 l 186 550 l 186 0 l 650 0 l 650 550 l 831 550 l 418 992 z "},"●":{"ha":833,"x_min":0,"x_max":0,"o":"m 418 110 b 813 494 640 110 813 271 b 418 882 813 721 640 882 b 22 494 194 882 22 721 b 418 110 22 271 194 110 z "},"○":{"ha":833,"x_min":0,"x_max":0,"o":"m 418 110 b 813 494 640 110 813 272 b 418 882 813 719 640 882 b 22 494 194 882 22 719 b 418 110 22 272 194 110 z m 143 494 b 418 765 143 654 263 765 b 692 494 572 765 692 654 b 418 226 692 338 572 226 b 143 494 263 226 143 338 z "},"◌":{"ha":833,"x_min":0,"x_max":0,"o":"m 414 92 l 414 176 b 489 182 440 176 467 178 l 506 101 b 414 92 476 96 446 92 z m 3 497 l 86 497 b 94 424 86 471 89 447 l 13 406 b 3 497 6 435 3 464 z m 8 565 b 32 654 14 597 21 626 l 111 624 b 92 553 101 601 96 576 z m 33 340 l 110 371 b 146 307 119 347 132 325 l 79 257 b 33 340 60 283 46 310 z m 65 717 b 124 789 82 744 100 767 l 181 728 b 135 672 163 711 147 693 z m 124 207 l 182 265 b 242 222 199 250 219 233 l 199 150 b 124 207 171 165 146 185 z m 176 832 b 260 874 203 850 229 863 l 288 797 b 222 763 265 789 244 776 z m 260 119 l 290 197 b 361 181 311 190 338 182 l 349 97 b 260 119 318 101 289 110 z m 325 894 b 415 904 354 900 383 903 l 417 819 b 342 813 390 819 365 817 z m 472 815 l 485 899 b 574 875 517 894 544 886 l 544 797 b 472 815 522 806 496 811 z m 543 197 b 608 232 567 208 589 218 l 654 163 b 572 121 628 144 601 132 z m 593 774 l 636 844 b 711 789 663 829 688 811 l 651 729 b 593 774 635 747 615 761 z m 650 267 b 697 322 669 283 685 301 l 767 278 b 708 204 751 251 731 226 z m 686 688 l 756 736 b 799 654 772 711 788 685 l 724 624 b 686 688 714 646 701 667 z m 722 371 b 742 442 731 392 738 418 l 824 429 b 800 339 818 397 811 368 z m 738 571 l 819 589 b 829 497 826 558 829 529 l 746 497 b 738 571 746 522 743 547 z "},"◊":{"ha":833,"x_min":0,"x_max":0,"o":"m 333 894 l 99 447 l 333 0 l 499 0 l 733 447 l 499 894 z m 235 447 l 417 790 l 597 447 l 417 104 z "},"▲":{"ha":833,"x_min":0,"x_max":0,"o":"m 415 701 l 821 0 l 11 0 z "},"▶":{"ha":833,"x_min":0,"x_max":0,"o":"m 626 497 l -75 92 l -75 901 z "},"▼":{"ha":833,"x_min":0,"x_max":0,"o":"m 415 285 l 11 986 l 821 986 z "},"◀":{"ha":833,"x_min":0,"x_max":0,"o":"m 207 497 l 908 901 l 908 92 z "},"△":{"ha":833,"x_min":0,"x_max":0,"o":"m 208 250 l 625 250 l 415 614 z m 11 136 l 415 838 l 821 136 z "},"▷":{"ha":833,"x_min":0,"x_max":0,"o":"m 175 704 l 175 288 l 539 497 z m 61 92 l 61 901 l 763 497 z "},"▽":{"ha":833,"x_min":0,"x_max":0,"o":"m 208 747 l 415 383 l 625 747 z m 11 861 l 821 861 l 415 160 z "},"◁":{"ha":833,"x_min":0,"x_max":0,"o":"m 658 704 l 294 497 l 658 288 z m 71 497 l 772 901 l 772 92 z "},"̈":{"ha":0,"x_min":0,"x_max":0,"o":"m 4 986 l 4 840 l 150 840 l 150 986 z m 217 840 l 363 840 l 363 986 l 217 986 z "},"̇":{"ha":0,"x_min":0,"x_max":0,"o":"m -1 986 l -1 840 l 144 840 l 144 986 z "},"̀":{"ha":0,"x_min":0,"x_max":0,"o":"m -6 1026 l 140 832 l 250 832 l 143 1026 z "},"́":{"ha":0,"x_min":0,"x_max":0,"o":"m 228 1026 l 88 1026 l 0 846 l 101 846 z "},"̋":{"ha":0,"x_min":0,"x_max":0,"o":"m 267 1026 l 126 1026 l 39 846 l 140 846 z m 218 846 l 319 846 l 446 1026 l 306 1026 z "},"̂":{"ha":0,"x_min":0,"x_max":0,"o":"m 276 846 l 404 846 l 283 1013 l 121 1013 l 1 846 l 128 846 l 203 950 z "},"̌":{"ha":0,"x_min":0,"x_max":0,"o":"m 276 1013 l 203 908 l 128 1013 l 1 1013 l 121 846 l 283 846 l 404 1013 z "},"̆":{"ha":0,"x_min":0,"x_max":0,"o":"m 100 1026 l 1 1026 b 203 846 3 925 90 846 b 404 1026 317 846 404 925 l 306 1026 b 203 936 306 976 261 936 b 100 1026 146 936 101 976 z "},"̊":{"ha":0,"x_min":0,"x_max":0,"o":"m 133 811 b 278 954 214 811 278 875 b 133 1101 278 1036 214 1101 b -11 954 53 1101 -11 1036 b 133 811 -11 875 53 811 z m 76 956 b 133 1013 76 988 101 1013 b 190 956 165 1013 190 988 b 133 900 190 925 165 900 b 76 956 101 900 76 925 z "},"̃":{"ha":0,"x_min":0,"x_max":0,"o":"m 150 935 b 221 890 182 935 197 914 b 331 843 244 865 274 843 b 471 1029 415 843 471 917 l 376 1029 b 324 938 376 967 360 938 b 243 992 288 938 271 965 b 142 1031 219 1014 192 1031 b 1 844 57 1031 3 958 l 96 844 b 150 935 96 908 114 935 z "},"̄":{"ha":0,"x_min":0,"x_max":0,"o":"m 3 964 l 3 865 l 365 865 l 365 964 z "},"̒":{"ha":0,"x_min":0,"x_max":0,"o":"m -329 1019 l -329 850 l -154 850 l -154 1019 l -225 1019 l -153 1243 l -228 1243 z "},"̦":{"ha":0,"x_min":0,"x_max":0,"o":"m 228 -83 l 88 -83 l 0 -264 l 101 -264 z "},"̧":{"ha":0,"x_min":0,"x_max":0,"o":"m 82 -65 l 124 -119 b 225 -169 179 -106 225 -125 b 164 -226 225 -203 201 -226 b 65 -154 117 -226 85 -179 l 0 -215 b 171 -311 56 -279 103 -311 b 311 -178 249 -311 311 -253 b 176 -50 311 -103 254 -50 l 235 14 l 154 14 z "},"̨":{"ha":0,"x_min":0,"x_max":0,"o":"m 147 -58 l 189 0 l 103 0 l 53 -54 b 0 -181 15 -93 0 -136 b 126 -300 0 -249 57 -299 b 238 -261 164 -301 203 -290 l 238 -164 b 150 -194 207 -178 175 -194 b 104 -147 124 -194 104 -174 b 147 -58 104 -119 128 -86 z "},"¨":{"ha":833,"x_min":0,"x_max":0,"o":"m 238 986 l 238 840 l 383 840 l 383 986 z m 449 840 l 594 840 l 594 986 l 449 986 z "},"˙":{"ha":833,"x_min":0,"x_max":0,"o":"m 343 986 l 343 840 l 489 840 l 489 986 z "},"`":{"ha":833,"x_min":0,"x_max":0,"o":"m 296 1026 l 442 832 l 551 832 l 444 1026 z "},"´":{"ha":833,"x_min":0,"x_max":0,"o":"m 529 1026 l 389 1026 l 301 846 l 403 846 z "},"˝":{"ha":833,"x_min":0,"x_max":0,"o":"m 440 1026 l 300 1026 l 213 846 l 314 846 z m 393 846 l 494 846 l 621 1026 l 481 1026 z "},"ˆ":{"ha":833,"x_min":0,"x_max":0,"o":"m 490 846 l 618 846 l 497 1013 l 335 1013 l 215 846 l 342 846 l 417 950 z "},"ˇ":{"ha":833,"x_min":0,"x_max":0,"o":"m 490 1013 l 417 908 l 342 1013 l 215 1013 l 335 846 l 497 846 l 618 1013 z "},"˘":{"ha":833,"x_min":0,"x_max":0,"o":"m 100 1026 l 1 1026 b 203 846 3 925 90 846 b 404 1026 317 846 404 925 l 306 1026 b 203 936 306 976 261 936 b 100 1026 146 936 101 976 z "},"˚":{"ha":833,"x_min":0,"x_max":0,"o":"m 133 811 b 278 954 214 811 278 875 b 133 1101 278 1036 214 1101 b -11 954 53 1101 -11 1036 b 133 811 -11 875 53 811 z m 76 956 b 133 1013 76 988 101 1013 b 190 956 165 1013 190 988 b 133 900 190 925 165 900 b 76 956 101 900 76 925 z "},"˜":{"ha":833,"x_min":0,"x_max":0,"o":"m 150 935 b 221 890 182 935 197 914 b 331 843 244 865 274 843 b 471 1029 415 843 471 917 l 376 1029 b 324 938 376 967 360 938 b 243 992 288 938 271 965 b 142 1031 219 1014 192 1031 b 1 844 57 1031 3 958 l 96 844 b 150 935 96 908 114 935 z "},"¯":{"ha":833,"x_min":0,"x_max":0,"o":"m 3 964 l 3 865 l 365 865 l 365 964 z "},"¸":{"ha":833,"x_min":0,"x_max":0,"o":"m 82 -65 l 124 -119 b 225 -169 179 -106 225 -125 b 164 -226 225 -203 201 -226 b 65 -154 117 -226 85 -179 l 0 -215 b 171 -311 56 -279 103 -311 b 311 -178 249 -311 311 -253 b 176 -50 311 -103 254 -50 l 235 14 l 154 14 z "},"˛":{"ha":833,"x_min":0,"x_max":0,"o":"m 147 -58 l 189 0 l 103 0 l 53 -54 b 0 -181 15 -93 0 -136 b 126 -300 0 -249 57 -299 b 238 -261 164 -301 203 -290 l 238 -164 b 150 -194 207 -178 175 -194 b 104 -147 124 -194 104 -174 b 147 -58 104 -119 128 -86 z "}}}
